<?xml version="1.0" encoding="UTF-8"?>
<!DOCTYPE svg PUBLIC "-//W3C//DTD SVG 1.1//EN" "http://www.w3.org/Graphics/SVG/1.1/DTD/svg11.dtd">
<svg version="1.1" xmlns="http://www.w3.org/2000/svg" xmlns:xlink="http://www.w3.org/1999/xlink" x="0" y="0" width="2160" height="1584" viewBox="0, 0, 2160, 1584">
  <g id="panels">
    <g>
      <g>
        <g>
          <path d="M1416.614,396.08 L1416.614,489.633 L1335.594,442.856 z" fill="#E0D695"/>
          <path d="M1416.614,302.526 L1335.594,255.75 L1416.614,208.973 z" fill="#E0D695"/>
          <path d="M1254.575,396.08 L1173.555,349.303 L1254.575,302.526 z" fill="#E0D695"/>
          <path d="M1335.594,255.75 L1416.614,302.526 L1416.614,396.08 L1335.594,442.856 L1254.575,396.08 L1254.575,302.526 z" fill="#E0D695"/>
        </g>
        <g>
          <path d="M1510.167,396.08 L1591.187,442.856 L1510.167,489.633 z" fill="#E0D695"/>
          <path d="M1510.167,302.526 L1510.167,208.973 L1591.187,255.75 z" fill="#E0D695"/>
          <path d="M1672.206,302.526 L1672.206,396.08 L1591.186,442.856 L1510.167,396.08 L1510.167,302.526 L1591.186,255.75 z" fill="#E0D695"/>
          <path d="M1672.206,396.08 L1672.206,302.526 L1753.225,349.303 z" fill="#E0D695"/>
        </g>
        <g>
          <path d="M743.39,396.061 L743.39,489.614 L824.409,442.838 z" fill="#E0D695"/>
          <path d="M743.39,302.508 L824.409,255.731 L743.39,208.954 z" fill="#E0D695"/>
          <path d="M905.429,396.061 L986.448,349.284 L905.429,302.508 z" fill="#E0D695"/>
          <path d="M824.41,255.731 L743.39,302.507 L743.39,396.061 L824.409,442.837 L905.429,396.061 L905.429,302.508 z" fill="#E0D695"/>
        </g>
        <g>
          <path d="M649.837,396.061 L568.817,442.837 L649.837,489.614 z" fill="#E0D695"/>
          <path d="M649.837,302.507 L649.837,208.954 L568.817,255.731 z" fill="#E0D695"/>
          <path d="M487.798,302.507 L487.798,396.061 L568.817,442.837 L649.837,396.061 L649.837,302.508 L568.817,255.731 z" fill="#E0D695"/>
          <path d="M487.798,396.061 L487.798,302.508 L406.778,349.284 z" fill="#E0D695"/>
        </g>
        <g>
          <path d="M2183.39,396.072 L2183.39,489.625 L2102.37,442.848 z" fill="#E0D695"/>
          <path d="M2183.39,302.518 L2102.37,255.742 L2183.39,208.965 z" fill="#E0D695"/>
          <path d="M2021.351,396.071 L1940.331,349.295 L2021.351,302.518 z" fill="#E0D695"/>
          <path d="M2102.37,255.741 L2183.39,302.518 L2183.39,396.071 L2102.37,442.848 L2021.351,396.071 L2021.351,302.518 z" fill="#E0D695"/>
        </g>
        <g>
          <path d="M-23.386,396.076 L-23.386,489.63 L57.633,442.853 z" fill="#E0D695"/>
          <path d="M-23.386,302.523 L57.634,255.747 L-23.386,208.97 z" fill="#E0D695"/>
          <path d="M138.653,396.076 L219.673,349.3 L138.653,302.523 z" fill="#E0D695"/>
          <path d="M57.634,255.746 L-23.386,302.523 L-23.386,396.076 L57.634,442.853 L138.653,396.076 L138.653,302.523 z" fill="#E0D695"/>
        </g>
      </g>
      <g>
        <g>
          <path d="M1799.999,1060.125 L1799.999,1153.678 L1718.98,1106.902 z" fill="#E0D695"/>
          <path d="M1799.999,966.572 L1718.98,919.795 L1799.999,873.019 z" fill="#E0D695"/>
          <path d="M1637.96,1060.125 L1556.941,1013.349 L1637.96,966.572 z" fill="#E0D695"/>
          <path d="M1718.979,919.795 L1799.999,966.572 L1799.999,1060.125 L1718.979,1106.902 L1637.96,1060.125 L1637.96,966.572 z" fill="#E0D695"/>
        </g>
        <g>
          <path d="M1893.552,1060.125 L1974.572,1106.902 L1893.552,1153.678 z" fill="#E0D695"/>
          <path d="M1893.552,966.572 L1893.552,873.019 L1974.572,919.795 z" fill="#E0D695"/>
          <path d="M2055.591,966.572 L2055.591,1060.125 L1974.572,1106.902 L1893.552,1060.125 L1893.552,966.572 L1974.572,919.795 z" fill="#E0D695"/>
          <path d="M2055.591,1060.125 L2055.591,966.572 L2136.611,1013.349 z" fill="#E0D695"/>
        </g>
        <g>
          <path d="M360,1060.13 L360,1153.684 L441.02,1106.907 z" fill="#E0D695"/>
          <path d="M360,966.577 L441.02,919.801 L360,873.024 z" fill="#E0D695"/>
          <path d="M522.04,1060.13 L603.059,1013.354 L522.04,966.577 z" fill="#E0D695"/>
          <path d="M441.02,919.8 L360.001,966.577 L360.001,1060.13 L441.02,1106.907 L522.04,1060.13 L522.039,966.577 z" fill="#E0D695"/>
        </g>
        <g>
          <path d="M266.447,1060.13 L185.428,1106.907 L266.447,1153.683 z" fill="#E0D695"/>
          <path d="M266.447,966.577 L266.447,873.024 L185.428,919.8 z" fill="#E0D695"/>
          <path d="M104.408,966.577 L104.408,1060.13 L185.428,1106.907 L266.447,1060.13 L266.447,966.577 L185.428,919.8 z" fill="#E0D695"/>
          <path d="M104.408,1060.13 L104.408,966.577 L23.389,1013.354 z" fill="#E0D695"/>
        </g>
        <g>
          <path d="M1126.776,966.574 L1207.796,919.797 L1126.776,873.02 z" fill="#E0D695"/>
          <path d="M1126.776,1060.127 L1126.776,1153.68 L1207.796,1106.903 z" fill="#E0D695"/>
          <path d="M1288.815,1060.127 L1288.815,966.573 L1207.796,919.797 L1126.776,966.573 L1126.776,1060.127 L1207.796,1106.903 z" fill="#E0D695"/>
          <path d="M1288.815,966.574 L1288.815,1060.127 L1369.834,1013.35 z" fill="#E0D695"/>
        </g>
        <g>
          <path d="M1033.222,966.574 L952.202,919.797 L1033.222,873.02 z" fill="#E0D695"/>
          <path d="M1033.222,1060.127 L1033.222,1153.68 L952.202,1106.903 z" fill="#E0D695"/>
          <path d="M871.183,1060.127 L871.183,966.573 L952.202,919.797 L1033.222,966.574 L1033.222,1060.127 L952.202,1106.903 z" fill="#E0D695"/>
          <path d="M871.183,966.574 L871.183,1060.127 L790.163,1013.35 z" fill="#E0D695"/>
        </g>
      </g>
      <g>
        <g>
          <path d="M2183.387,1724.177 L2183.387,1817.73 L2102.368,1770.954 z" fill="#E0D695"/>
          <path d="M2183.387,1630.624 L2102.368,1583.847 L2183.387,1537.071 z" fill="#E0D695"/>
          <path d="M2021.348,1724.177 L1940.329,1677.401 L2021.348,1630.624 z" fill="#E0D695"/>
          <path d="M2102.368,1583.847 L2183.387,1630.624 L2183.387,1724.177 L2102.368,1770.954 L2021.348,1724.177 L2021.348,1630.624 z" fill="#E0D695"/>
        </g>
        <g>
          <path d="M-23.388,1724.182 L-23.388,1817.735 L57.631,1770.959 z" fill="#E0D695"/>
          <path d="M-23.388,1630.629 L57.631,1583.852 L-23.388,1537.076 z" fill="#E0D695"/>
          <path d="M138.651,1724.182 L219.67,1677.406 L138.651,1630.629 z" fill="#E0D695"/>
          <path d="M57.631,1583.852 L-23.388,1630.629 L-23.388,1724.182 L57.631,1770.959 L138.651,1724.182 L138.651,1630.629 z" fill="#E0D695"/>
        </g>
        <g>
          <path d="M1416.611,1724.175 L1416.611,1817.728 L1335.592,1770.951 z" fill="#E0D695"/>
          <path d="M1416.611,1630.621 L1335.592,1583.845 L1416.611,1537.068 z" fill="#E0D695"/>
          <path d="M1254.572,1724.175 L1173.553,1677.398 L1254.572,1630.621 z" fill="#E0D695"/>
          <path d="M1335.592,1583.845 L1416.611,1630.621 L1416.611,1724.174 L1335.592,1770.951 L1254.572,1724.174 L1254.572,1630.621 z" fill="#E0D695"/>
        </g>
        <g>
          <path d="M1510.165,1724.174 L1591.184,1770.951 L1510.165,1817.728 z" fill="#E0D695"/>
          <path d="M1510.165,1630.621 L1510.165,1537.068 L1591.184,1583.845 z" fill="#E0D695"/>
          <path d="M1672.203,1630.621 L1672.203,1724.175 L1591.184,1770.951 L1510.165,1724.174 L1510.165,1630.621 L1591.184,1583.845 z" fill="#E0D695"/>
          <path d="M1672.203,1724.174 L1672.203,1630.621 L1753.223,1677.398 z" fill="#E0D695"/>
        </g>
        <g>
          <path d="M743.387,1724.156 L743.387,1817.709 L824.407,1770.932 z" fill="#E0D695"/>
          <path d="M743.388,1630.602 L824.407,1583.826 L743.388,1537.049 z" fill="#E0D695"/>
          <path d="M905.427,1724.156 L986.446,1677.379 L905.427,1630.602 z" fill="#E0D695"/>
          <path d="M824.407,1583.826 L743.388,1630.602 L743.388,1724.156 L824.407,1770.932 L905.427,1724.156 L905.427,1630.602 z" fill="#E0D695"/>
        </g>
        <g>
          <path d="M649.834,1724.156 L568.815,1770.932 L649.834,1817.709 z" fill="#E0D695"/>
          <path d="M649.834,1630.602 L649.835,1537.049 L568.815,1583.826 z" fill="#E0D695"/>
          <path d="M487.796,1630.602 L487.796,1724.156 L568.815,1770.932 L649.834,1724.156 L649.835,1630.602 L568.815,1583.826 z" fill="#E0D695"/>
          <path d="M487.796,1724.156 L487.796,1630.602 L406.776,1677.379 z" fill="#E0D695"/>
        </g>
      </g>
    </g>
    <g>
      <g>
        <g>
          <path d="M1510.165,838.776 L1591.184,885.553 L1510.165,932.33 z" fill="#527C3A"/>
          <path d="M1510.165,745.223 L1510.165,651.67 L1591.184,698.447 z" fill="#527C3A"/>
          <path d="M1672.204,745.223 L1672.204,838.777 L1591.184,885.553 L1510.165,838.776 L1510.165,745.223 L1591.184,698.447 z" fill="#527C3A"/>
          <path d="M1672.204,838.776 L1672.204,745.223 L1753.223,792 z" fill="#527C3A"/>
        </g>
        <g>
          <path d="M743.388,838.758 L743.388,932.311 L824.407,885.534 z" fill="#527C3A"/>
          <path d="M743.388,745.204 L824.407,698.428 L743.388,651.651 z" fill="#527C3A"/>
          <path d="M905.427,838.758 L986.446,791.981 L905.427,745.204 z" fill="#527C3A"/>
          <path d="M824.408,698.428 L743.388,745.204 L743.388,838.758 L824.407,885.534 L905.427,838.758 L905.427,745.204 z" fill="#527C3A"/>
        </g>
        <g>
          <path d="M1033.222,523.873 L952.203,477.096 L1033.222,430.32 z" fill="#527C3A"/>
          <path d="M1033.222,617.426 L1033.222,710.979 L952.203,664.203 z" fill="#527C3A"/>
          <path d="M871.183,617.426 L871.183,523.873 L952.203,477.096 L1033.222,523.873 L1033.222,617.426 L952.203,664.202 z" fill="#527C3A"/>
          <path d="M871.183,523.873 L871.183,617.426 L790.164,570.649 z" fill="#527C3A"/>
        </g>
        <g>
          <path d="M1800.001,617.429 L1800.001,710.982 L1718.982,664.205 z" fill="#527C3A"/>
          <path d="M1800.001,523.875 L1718.982,477.099 L1800.001,430.322 z" fill="#527C3A"/>
          <path d="M1637.962,617.428 L1556.943,570.652 L1637.962,523.875 z" fill="#527C3A"/>
          <path d="M1718.981,477.098 L1800.001,523.875 L1800.001,617.428 L1718.982,664.205 L1637.962,617.428 L1637.962,523.875 z" fill="#527C3A"/>
        </g>
        <g>
          <path d="M266.449,617.433 L185.43,664.21 L266.449,710.987 z" fill="#527C3A"/>
          <path d="M266.449,523.88 L266.449,430.327 L185.43,477.104 z" fill="#527C3A"/>
          <path d="M104.41,523.88 L104.41,617.433 L185.43,664.21 L266.449,617.433 L266.449,523.88 L185.43,477.104 z" fill="#527C3A"/>
          <path d="M104.41,617.433 L104.41,523.88 L23.391,570.657 z" fill="#527C3A"/>
        </g>
        <g>
          <path d="M-23.386,838.784 L-23.386,932.338 L57.634,885.561 z" fill="#527C3A"/>
          <path d="M-23.386,745.231 L57.634,698.454 L-23.386,651.678 z" fill="#527C3A"/>
          <path d="M138.653,838.784 L219.673,792.008 L138.653,745.231 z" fill="#527C3A"/>
          <path d="M57.634,698.454 L-23.386,745.231 L-23.386,838.784 L57.634,885.561 L138.653,838.784 L138.653,745.231 z" fill="#527C3A"/>
        </g>
      </g>
      <g>
        <g>
          <path d="M2183.388,1281.476 L2183.388,1375.029 L2102.368,1328.253 z" fill="#527C3A"/>
          <path d="M2183.388,1187.923 L2102.368,1141.146 L2183.388,1094.37 z" fill="#527C3A"/>
          <path d="M2021.349,1281.476 L1940.329,1234.7 L2021.349,1187.923 z" fill="#527C3A"/>
          <path d="M2102.368,1141.146 L2183.387,1187.923 L2183.387,1281.476 L2102.368,1328.253 L2021.349,1281.476 L2021.349,1187.923 z" fill="#527C3A"/>
        </g>
        <g>
          <path d="M1416.611,1281.478 L1416.611,1375.031 L1335.592,1328.254 z" fill="#527C3A"/>
          <path d="M1416.611,1187.924 L1335.592,1141.148 L1416.611,1094.371 z" fill="#527C3A"/>
          <path d="M1254.572,1281.478 L1173.553,1234.701 L1254.572,1187.924 z" fill="#527C3A"/>
          <path d="M1335.592,1141.148 L1416.611,1187.924 L1416.611,1281.477 L1335.592,1328.254 L1254.572,1281.477 L1254.572,1187.924 z" fill="#527C3A"/>
        </g>
        <g>
          <path d="M1893.552,1502.826 L1974.571,1549.603 L1893.552,1596.379 z" fill="#527C3A"/>
          <path d="M1893.552,1409.273 L1893.552,1315.72 L1974.571,1362.496 z" fill="#527C3A"/>
          <path d="M2055.591,1409.273 L2055.591,1502.826 L1974.571,1549.603 L1893.552,1502.826 L1893.552,1409.273 L1974.571,1362.496 z" fill="#527C3A"/>
          <path d="M2055.591,1502.826 L2055.591,1409.273 L2136.61,1456.049 z" fill="#527C3A"/>
        </g>
        <g>
          <path d="M649.834,1281.458 L568.815,1328.235 L649.834,1375.012 z" fill="#527C3A"/>
          <path d="M649.834,1187.905 L649.834,1094.352 L568.815,1141.129 z" fill="#527C3A"/>
          <path d="M487.796,1187.905 L487.795,1281.459 L568.815,1328.235 L649.834,1281.458 L649.834,1187.905 L568.815,1141.129 z" fill="#527C3A"/>
          <path d="M487.796,1281.458 L487.796,1187.905 L406.776,1234.682 z" fill="#527C3A"/>
        </g>
        <g>
          <path d="M360,1502.831 L360,1596.385 L441.019,1549.608 z" fill="#527C3A"/>
          <path d="M360,1409.278 L441.02,1362.501 L360,1315.725 z" fill="#527C3A"/>
          <path d="M522.039,1502.831 L603.059,1456.055 L522.039,1409.278 z" fill="#527C3A"/>
          <path d="M441.02,1362.501 L360,1409.278 L360,1502.831 L441.02,1549.608 L522.039,1502.831 L522.039,1409.278 z" fill="#527C3A"/>
        </g>
        <g>
          <path d="M1126.776,1409.271 L1207.796,1362.494 L1126.776,1315.717 z" fill="#527C3A"/>
          <path d="M1126.776,1502.824 L1126.776,1596.377 L1207.796,1549.6 z" fill="#527C3A"/>
          <path d="M1288.815,1502.824 L1288.815,1409.27 L1207.796,1362.494 L1126.776,1409.271 L1126.776,1502.824 L1207.796,1549.6 z" fill="#527C3A"/>
          <path d="M1288.815,1409.271 L1288.815,1502.824 L1369.834,1456.047 z" fill="#527C3A"/>
        </g>
      </g>
      <g>
        <g>
          <path d="M1126.779,81.176 L1207.798,34.399 L1126.779,-12.378 z" fill="#527C3A"/>
          <path d="M1126.779,174.729 L1126.779,268.282 L1207.798,221.505 z" fill="#527C3A"/>
          <path d="M1288.818,174.729 L1288.818,81.175 L1207.798,34.399 L1126.779,81.175 L1126.779,174.729 L1207.798,221.505 z" fill="#527C3A"/>
          <path d="M1288.818,81.176 L1288.817,174.729 L1369.837,127.952 z" fill="#527C3A"/>
        </g>
        <g>
          <path d="M1416.614,-46.628 L1416.614,46.926 L1335.594,0.149 z" fill="#527C3A"/>
          <path d="M1416.614,-140.181 L1335.594,-186.958 L1416.614,-233.734 z" fill="#527C3A"/>
          <path d="M1254.575,-46.628 L1173.555,-93.404 L1254.575,-140.181 z" fill="#527C3A"/>
          <path d="M1335.594,-186.958 L1416.614,-140.181 L1416.614,-46.628 L1335.594,0.149 L1254.575,-46.628 L1254.575,-140.181 z" fill="#527C3A"/>
        </g>
        <g>
          <path d="M1893.554,174.721 L1974.574,221.497 L1893.554,268.274 z" fill="#527C3A"/>
          <path d="M1893.554,81.167 L1893.554,-12.386 L1974.574,34.391 z" fill="#527C3A"/>
          <path d="M2055.593,81.167 L2055.593,174.721 L1974.574,221.497 L1893.554,174.721 L1893.554,81.168 L1974.574,34.391 z" fill="#527C3A"/>
          <path d="M2055.593,174.721 L2055.593,81.167 L2136.613,127.944 z" fill="#527C3A"/>
        </g>
        <g>
          <path d="M649.837,-46.647 L568.817,0.13 L649.837,46.906 z" fill="#527C3A"/>
          <path d="M649.837,-140.2 L649.837,-233.753 L568.817,-186.977 z" fill="#527C3A"/>
          <path d="M487.798,-140.2 L487.798,-46.647 L568.817,0.13 L649.837,-46.647 L649.837,-140.2 L568.817,-186.977 z" fill="#527C3A"/>
          <path d="M487.798,-46.647 L487.798,-140.2 L406.778,-93.423 z" fill="#527C3A"/>
        </g>
        <g>
          <path d="M360.002,174.726 L360.002,268.279 L441.022,221.503 z" fill="#527C3A"/>
          <path d="M360.003,81.173 L441.022,34.396 L360.003,-12.381 z" fill="#527C3A"/>
          <path d="M522.042,174.726 L603.061,127.949 L522.042,81.173 z" fill="#527C3A"/>
          <path d="M441.022,34.396 L360.003,81.173 L360.003,174.726 L441.022,221.502 L522.042,174.726 L522.042,81.173 z" fill="#527C3A"/>
        </g>
        <g>
          <path d="M2183.39,-46.628 L2183.39,46.925 L2102.37,0.148 z" fill="#527C3A"/>
          <path d="M2183.39,-140.181 L2102.37,-186.958 L2183.39,-233.735 z" fill="#527C3A"/>
          <path d="M2021.351,-46.628 L1940.331,-93.405 L2021.351,-140.182 z" fill="#527C3A"/>
          <path d="M2102.37,-186.958 L2183.39,-140.182 L2183.39,-46.628 L2102.37,0.148 L2021.351,-46.628 L2021.351,-140.182 z" fill="#527C3A"/>
        </g>
      </g>
    </g>
    <g>
      <g>
        <g>
          <path d="M1416.612,838.777 L1416.612,932.33 L1335.592,885.553 z" fill="#466CA2"/>
          <path d="M1416.612,745.223 L1335.592,698.447 L1416.612,651.67 z" fill="#466CA2"/>
          <path d="M1254.573,838.777 L1173.553,792 L1254.573,745.223 z" fill="#466CA2"/>
          <path d="M1335.592,698.447 L1416.612,745.223 L1416.612,838.776 L1335.592,885.553 L1254.573,838.777 L1254.573,745.223 z" fill="#466CA2"/>
        </g>
        <g>
          <path d="M1126.776,523.873 L1207.796,477.096 L1126.776,430.319 z" fill="#466CA2"/>
          <path d="M1126.776,617.426 L1126.776,710.979 L1207.796,664.202 z" fill="#466CA2"/>
          <path d="M1288.815,617.426 L1288.815,523.872 L1207.796,477.096 L1126.776,523.872 L1126.776,617.426 L1207.796,664.202 z" fill="#466CA2"/>
          <path d="M1288.815,523.873 L1288.815,617.426 L1369.835,570.649 z" fill="#466CA2"/>
        </g>
        <g>
          <path d="M649.835,838.758 L568.815,885.534 L649.835,932.311 z" fill="#466CA2"/>
          <path d="M649.835,745.204 L649.835,651.651 L568.815,698.428 z" fill="#466CA2"/>
          <path d="M487.796,745.204 L487.796,838.758 L568.815,885.534 L649.835,838.758 L649.835,745.204 L568.815,698.428 z" fill="#466CA2"/>
          <path d="M487.796,838.758 L487.796,745.204 L406.776,791.981 z" fill="#466CA2"/>
        </g>
        <g>
          <path d="M1893.554,617.428 L1974.574,664.205 L1893.554,710.981 z" fill="#466CA2"/>
          <path d="M1893.554,523.875 L1893.554,430.322 L1974.574,477.098 z" fill="#466CA2"/>
          <path d="M2055.593,523.875 L2055.593,617.428 L1974.574,664.205 L1893.554,617.428 L1893.554,523.875 L1974.574,477.099 z" fill="#466CA2"/>
          <path d="M2055.593,617.428 L2055.593,523.875 L2136.613,570.652 z" fill="#466CA2"/>
        </g>
        <g>
          <path d="M2183.39,838.779 L2183.39,932.333 L2102.37,885.556 z" fill="#466CA2"/>
          <path d="M2183.39,745.226 L2102.37,698.449 L2183.39,651.673 z" fill="#466CA2"/>
          <path d="M2021.351,838.779 L1940.331,792.003 L2021.351,745.226 z" fill="#466CA2"/>
          <path d="M2102.37,698.449 L2183.39,745.226 L2183.39,838.779 L2102.37,885.556 L2021.351,838.779 L2021.351,745.226 z" fill="#466CA2"/>
        </g>
        <g>
          <path d="M360.002,617.434 L360.002,710.987 L441.022,664.21 z" fill="#466CA2"/>
          <path d="M360.003,523.88 L441.022,477.104 L360.003,430.327 z" fill="#466CA2"/>
          <path d="M522.042,617.433 L603.061,570.657 L522.042,523.88 z" fill="#466CA2"/>
          <path d="M441.022,477.104 L360.003,523.88 L360.003,617.433 L441.022,664.21 L522.042,617.433 L522.042,523.88 z" fill="#466CA2"/>
        </g>
      </g>
      <g>
        <g>
          <path d="M-23.388,1281.481 L-23.388,1375.034 L57.632,1328.258 z" fill="#466CA2"/>
          <path d="M-23.388,1187.928 L57.632,1141.151 L-23.388,1094.375 z" fill="#466CA2"/>
          <path d="M138.651,1281.481 L219.671,1234.705 L138.651,1187.928 z" fill="#466CA2"/>
          <path d="M57.632,1141.151 L-23.388,1187.928 L-23.388,1281.481 L57.632,1328.258 L138.651,1281.481 L138.651,1187.928 z" fill="#466CA2"/>
        </g>
        <g>
          <path d="M1510.165,1281.477 L1591.184,1328.254 L1510.165,1375.031 z" fill="#466CA2"/>
          <path d="M1510.165,1187.924 L1510.165,1094.371 L1591.184,1141.148 z" fill="#466CA2"/>
          <path d="M1672.203,1187.924 L1672.203,1281.478 L1591.184,1328.254 L1510.165,1281.477 L1510.165,1187.924 L1591.184,1141.148 z" fill="#466CA2"/>
          <path d="M1672.203,1281.477 L1672.203,1187.924 L1753.223,1234.701 z" fill="#466CA2"/>
        </g>
        <g>
          <path d="M1799.999,1502.826 L1799.999,1596.379 L1718.979,1549.603 z" fill="#466CA2"/>
          <path d="M1799.999,1409.273 L1718.979,1362.496 L1799.999,1315.72 z" fill="#466CA2"/>
          <path d="M1637.96,1502.826 L1556.94,1456.05 L1637.96,1409.273 z" fill="#466CA2"/>
          <path d="M1718.979,1362.496 L1799.999,1409.273 L1799.999,1502.826 L1718.979,1549.603 L1637.96,1502.826 L1637.96,1409.273 z" fill="#466CA2"/>
        </g>
        <g>
          <path d="M743.387,1281.459 L743.387,1375.012 L824.407,1328.235 z" fill="#466CA2"/>
          <path d="M743.388,1187.905 L824.407,1141.129 L743.387,1094.352 z" fill="#466CA2"/>
          <path d="M905.427,1281.459 L986.446,1234.682 L905.427,1187.905 z" fill="#466CA2"/>
          <path d="M824.407,1141.129 L743.388,1187.905 L743.388,1281.458 L824.407,1328.235 L905.427,1281.458 L905.427,1187.905 z" fill="#466CA2"/>
        </g>
        <g>
          <path d="M266.447,1502.831 L185.427,1549.608 L266.447,1596.384 z" fill="#466CA2"/>
          <path d="M266.447,1409.278 L266.447,1315.725 L185.427,1362.501 z" fill="#466CA2"/>
          <path d="M104.408,1409.278 L104.408,1502.831 L185.427,1549.608 L266.447,1502.831 L266.447,1409.278 L185.427,1362.501 z" fill="#466CA2"/>
          <path d="M104.408,1502.831 L104.408,1409.278 L23.388,1456.055 z" fill="#466CA2"/>
        </g>
        <g>
          <path d="M1033.222,1409.271 L952.202,1362.494 L1033.222,1315.717 z" fill="#466CA2"/>
          <path d="M1033.222,1502.824 L1033.222,1596.377 L952.202,1549.6 z" fill="#466CA2"/>
          <path d="M871.183,1502.824 L871.183,1409.271 L952.202,1362.494 L1033.222,1409.271 L1033.222,1502.824 L952.202,1549.6 z" fill="#466CA2"/>
          <path d="M871.183,1409.271 L871.183,1502.824 L790.163,1456.047 z" fill="#466CA2"/>
        </g>
      </g>
      <g>
        <g>
          <path d="M1033.224,81.176 L952.205,34.399 L1033.224,-12.378 z" fill="#466CA2"/>
          <path d="M1033.224,174.729 L1033.224,268.282 L952.205,221.506 z" fill="#466CA2"/>
          <path d="M871.185,174.729 L871.185,81.176 L952.205,34.399 L1033.224,81.176 L1033.224,174.729 L952.205,221.505 z" fill="#466CA2"/>
          <path d="M871.185,81.176 L871.185,174.729 L790.166,127.952 z" fill="#466CA2"/>
        </g>
        <g>
          <path d="M1510.167,-46.628 L1591.187,0.149 L1510.167,46.925 z" fill="#466CA2"/>
          <path d="M1510.167,-140.181 L1510.167,-233.734 L1591.187,-186.958 z" fill="#466CA2"/>
          <path d="M1672.206,-140.181 L1672.206,-46.628 L1591.186,0.149 L1510.167,-46.628 L1510.167,-140.181 L1591.186,-186.958 z" fill="#466CA2"/>
          <path d="M1672.206,-46.628 L1672.206,-140.181 L1753.225,-93.404 z" fill="#466CA2"/>
        </g>
        <g>
          <path d="M1800.001,174.721 L1800.001,268.274 L1718.982,221.497 z" fill="#466CA2"/>
          <path d="M1800.001,81.168 L1718.982,34.391 L1800.001,-12.386 z" fill="#466CA2"/>
          <path d="M1637.962,174.721 L1556.943,127.944 L1637.962,81.167 z" fill="#466CA2"/>
          <path d="M1718.981,34.391 L1800.001,81.167 L1800.001,174.721 L1718.982,221.497 L1637.962,174.721 L1637.962,81.168 z" fill="#466CA2"/>
        </g>
        <g>
          <path d="M743.39,-46.647 L743.39,46.907 L824.409,0.13 z" fill="#466CA2"/>
          <path d="M743.39,-140.2 L824.409,-186.976 L743.39,-233.753 z" fill="#466CA2"/>
          <path d="M905.429,-46.647 L986.448,-93.423 L905.429,-140.2 z" fill="#466CA2"/>
          <path d="M824.41,-186.977 L743.39,-140.2 L743.39,-46.647 L824.409,0.13 L905.429,-46.647 L905.429,-140.2 z" fill="#466CA2"/>
        </g>
        <g>
          <path d="M266.449,174.726 L185.43,221.502 L266.449,268.279 z" fill="#466CA2"/>
          <path d="M266.449,81.173 L266.449,-12.381 L185.43,34.396 z" fill="#466CA2"/>
          <path d="M104.41,81.172 L104.41,174.726 L185.43,221.502 L266.449,174.726 L266.449,81.173 L185.43,34.396 z" fill="#466CA2"/>
          <path d="M104.41,174.726 L104.41,81.173 L23.391,127.949 z" fill="#466CA2"/>
        </g>
        <g>
          <path d="M-23.386,-46.623 L-23.386,46.93 L57.634,0.153 z" fill="#466CA2"/>
          <path d="M-23.386,-140.176 L57.634,-186.953 L-23.386,-233.73 z" fill="#466CA2"/>
          <path d="M138.653,-46.623 L219.673,-93.4 L138.653,-140.177 z" fill="#466CA2"/>
          <path d="M57.634,-186.953 L-23.386,-140.177 L-23.386,-46.623 L57.634,0.153 L138.653,-46.623 L138.653,-140.177 z" fill="#466CA2"/>
        </g>
      </g>
    </g>
  </g>
  <g id="bars">
    <g>
      <g>
        <g>
          <path d="M1718.98,1106.905 L1799.999,1153.681 L1753.222,1234.7 L1672.203,1187.924 z" fill="#46905D"/>
          <path d="M1672.201,1187.924 L1591.182,1141.148 L1637.958,1060.128 L1718.977,1106.905 z" fill="#46905D"/>
          <path d="M1591.183,1141.144 L1510.163,1094.368 L1556.94,1013.348 L1637.959,1060.125 z" fill="#46905D"/>
          <path d="M952.205,1106.907 L871.185,1060.131 L824.409,1141.15 L905.428,1187.927 z" fill="#46905D"/>
          <path d="M871.184,1060.127 L790.165,1013.351 L743.388,1094.37 L824.407,1141.147 z" fill="#46905D"/>
          <path d="M952.209,1106.903 L1033.228,1153.679 L986.452,1234.699 L905.432,1187.922 z" fill="#46905D"/>
          <g>
            <path d="M138.655,1187.92 L219.674,1234.697 L266.451,1153.677 L185.432,1106.901 z" fill="#46905D"/>
            <path d="M57.636,1141.143 L138.655,1187.92 L185.432,1106.901 L104.412,1060.124 z" fill="#46905D"/>
            <path d="M104.412,1060.124 L23.393,1013.347 L-23.384,1094.367 L57.635,1141.143 z" fill="#46905D"/>
          </g>
          <path d="M441.017,1106.905 L359.997,1153.681 L406.774,1234.701 L487.793,1187.924 z" fill="#46905D"/>
          <path d="M487.795,1187.924 L568.815,1141.148 L522.038,1060.128 L441.019,1106.905 z" fill="#46905D"/>
          <path d="M568.813,1141.144 L649.833,1094.368 L603.056,1013.348 L522.037,1060.125 z" fill="#46905D"/>
          <path d="M1207.792,1106.907 L1288.811,1060.131 L1335.587,1141.15 L1254.568,1187.927 z" fill="#46905D"/>
          <path d="M1288.812,1060.127 L1369.831,1013.351 L1416.608,1094.37 L1335.589,1141.147 z" fill="#46905D"/>
          <path d="M1207.787,1106.903 L1126.768,1153.679 L1173.545,1234.699 L1254.564,1187.922 z" fill="#46905D"/>
          <path d="M2021.341,1187.92 L1940.322,1234.697 L1893.545,1153.677 L1974.564,1106.901 z" fill="#46905D"/>
          <path d="M2102.36,1141.143 L2021.341,1187.92 L1974.564,1106.901 L2055.584,1060.124 z" fill="#46905D"/>
          <path d="M2055.584,1060.124 L2136.604,1013.347 L2183.38,1094.367 L2102.361,1141.143 z" fill="#46905D"/>
        </g>
        <g>
          <path d="M1974.574,919.804 L1893.555,873.027 L1940.331,792.008 L2021.351,838.784 z" fill="#46905D"/>
          <path d="M2055.594,966.58 L1974.574,919.804 L2021.351,838.784 L2102.37,885.561 z" fill="#46905D"/>
          <path d="M2102.371,885.559 L2183.39,932.336 L2136.614,1013.355 L2055.594,966.579 z" fill="#46905D"/>
          <path d="M1335.596,885.56 L1416.616,932.337 L1369.839,1013.356 L1288.82,966.58 z" fill="#46905D"/>
          <path d="M1254.576,838.784 L1335.595,885.56 L1288.819,966.58 L1207.799,919.803 z" fill="#46905D"/>
          <path d="M1207.803,919.802 L1126.784,873.026 L1173.561,792.006 L1254.58,838.783 z" fill="#46905D"/>
          <g>
            <path d="M487.803,838.781 L406.783,792.004 L360.007,873.024 L441.026,919.8 z" fill="#46905D"/>
            <path d="M522.046,966.578 L603.065,1013.354 L649.842,932.335 L568.822,885.558 z" fill="#46905D"/>
            <path d="M441.026,919.801 L522.046,966.578 L568.822,885.558 L487.803,838.782 z" fill="#46905D"/>
          </g>
          <path d="M185.427,919.804 L266.446,873.027 L219.67,792.008 L138.65,838.784 z" fill="#46905D"/>
          <path d="M104.407,966.58 L185.427,919.804 L138.65,838.784 L57.631,885.561 z" fill="#46905D"/>
          <path d="M57.63,885.559 L-23.389,932.336 L23.387,1013.355 L104.407,966.579 z" fill="#46905D"/>
          <path d="M824.405,885.56 L743.385,932.337 L790.162,1013.356 L871.181,966.58 z" fill="#46905D"/>
          <path d="M905.425,838.784 L824.406,885.56 L871.182,966.58 L952.202,919.803 z" fill="#46905D"/>
          <path d="M952.198,919.802 L1033.217,873.026 L986.44,792.006 L905.421,838.783 z" fill="#46905D"/>
          <path d="M1672.198,838.781 L1753.218,792.004 L1799.994,873.024 L1718.975,919.8 z" fill="#46905D"/>
          <path d="M1637.955,966.578 L1556.936,1013.354 L1510.159,932.335 L1591.179,885.558 z" fill="#46905D"/>
          <path d="M1718.974,919.801 L1637.955,966.578 L1591.178,885.558 L1672.198,838.782 z" fill="#46905D"/>
        </g>
      </g>
      <g>
        <g>
          <path d="M1718.982,664.212 L1800.001,710.988 L1753.225,792.008 L1672.206,745.231 z" fill="#5EBD7C"/>
          <path d="M1672.203,745.232 L1591.184,698.455 L1637.961,617.436 L1718.98,664.212 z" fill="#5EBD7C"/>
          <path d="M1591.185,698.452 L1510.166,651.675 L1556.942,570.656 L1637.962,617.432 z" fill="#5EBD7C"/>
          <path d="M952.207,664.215 L871.188,617.438 L824.411,698.457 L905.431,745.234 z" fill="#5EBD7C"/>
          <path d="M871.187,617.435 L790.167,570.658 L743.391,651.677 L824.41,698.454 z" fill="#5EBD7C"/>
          <path d="M952.211,664.21 L1033.231,710.987 L986.454,792.006 L905.435,745.23 z" fill="#5EBD7C"/>
          <g>
            <path d="M138.657,745.227 L219.677,792.004 L266.453,710.984 L185.434,664.208 z" fill="#5EBD7C"/>
            <path d="M57.638,698.451 L138.657,745.227 L185.434,664.208 L104.415,617.431 z" fill="#5EBD7C"/>
            <path d="M104.414,617.431 L23.395,570.654 L-23.382,651.674 L57.638,698.451 z" fill="#5EBD7C"/>
          </g>
          <path d="M441.019,664.212 L360,710.988 L406.776,792.008 L487.796,745.231 z" fill="#5EBD7C"/>
          <path d="M487.798,745.232 L568.817,698.455 L522.041,617.436 L441.021,664.212 z" fill="#5EBD7C"/>
          <path d="M568.816,698.452 L649.835,651.675 L603.059,570.656 L522.039,617.432 z" fill="#5EBD7C"/>
          <path d="M1207.794,664.215 L1288.813,617.438 L1335.59,698.457 L1254.571,745.234 z" fill="#5EBD7C"/>
          <path d="M1288.815,617.435 L1369.834,570.658 L1416.61,651.677 L1335.591,698.454 z" fill="#5EBD7C"/>
          <path d="M1207.79,664.21 L1126.77,710.987 L1173.547,792.006 L1254.567,745.23 z" fill="#5EBD7C"/>
          <path d="M2021.344,745.227 L1940.324,792.004 L1893.547,710.984 L1974.567,664.208 z" fill="#5EBD7C"/>
          <path d="M2102.363,698.451 L2021.344,745.227 L1974.567,664.208 L2055.586,617.431 z" fill="#5EBD7C"/>
          <path d="M2055.586,617.431 L2136.606,570.654 L2183.383,651.674 L2102.363,698.451 z" fill="#5EBD7C"/>
        </g>
        <g>
          <path d="M1974.574,477.102 L1893.555,430.326 L1940.331,349.306 L2021.351,396.083 z" fill="#5EBD7C"/>
          <path d="M2055.594,523.879 L1974.574,477.102 L2021.351,396.083 L2102.37,442.859 z" fill="#5EBD7C"/>
          <path d="M2102.371,442.858 L2183.39,489.634 L2136.614,570.654 L2055.594,523.877 z" fill="#5EBD7C"/>
          <path d="M1335.596,442.858 L1416.616,489.635 L1369.839,570.654 L1288.82,523.878 z" fill="#5EBD7C"/>
          <path d="M1254.576,396.082 L1335.595,442.859 L1288.819,523.878 L1207.799,477.101 z" fill="#5EBD7C"/>
          <path d="M1207.803,477.101 L1126.784,430.324 L1173.561,349.305 L1254.58,396.081 z" fill="#5EBD7C"/>
          <g>
            <path d="M487.803,396.079 L406.783,349.303 L360.007,430.322 L441.026,477.099 z" fill="#5EBD7C"/>
            <path d="M522.046,523.876 L603.065,570.653 L649.842,489.633 L568.822,442.857 z" fill="#5EBD7C"/>
            <path d="M441.026,477.1 L522.046,523.876 L568.822,442.857 L487.803,396.08 z" fill="#5EBD7C"/>
          </g>
          <path d="M185.427,477.102 L266.446,430.326 L219.67,349.306 L138.65,396.083 z" fill="#5EBD7C"/>
          <path d="M104.407,523.879 L185.427,477.102 L138.65,396.083 L57.631,442.859 z" fill="#5EBD7C"/>
          <path d="M57.63,442.858 L-23.389,489.634 L23.387,570.654 L104.407,523.877 z" fill="#5EBD7C"/>
          <path d="M824.405,442.858 L743.385,489.635 L790.162,570.654 L871.181,523.878 z" fill="#5EBD7C"/>
          <path d="M905.425,396.082 L824.406,442.859 L871.182,523.878 L952.202,477.101 z" fill="#5EBD7C"/>
          <path d="M952.198,477.101 L1033.217,430.324 L986.44,349.305 L905.421,396.081 z" fill="#5EBD7C"/>
          <path d="M1672.198,396.079 L1753.218,349.303 L1799.994,430.322 L1718.975,477.099 z" fill="#5EBD7C"/>
          <path d="M1637.955,523.876 L1556.936,570.653 L1510.159,489.633 L1591.179,442.857 z" fill="#5EBD7C"/>
          <path d="M1718.974,477.1 L1637.955,523.876 L1591.178,442.857 L1672.198,396.08 z" fill="#5EBD7C"/>
        </g>
      </g>
      <g>
        <path d="M1974.572,1362.496 L1893.552,1315.72 L1940.329,1234.7 L2021.348,1281.477 z" fill="#2B5D3B"/>
        <path d="M2055.591,1409.273 L1974.572,1362.496 L2021.348,1281.477 L2102.368,1328.253 z" fill="#2B5D3B"/>
        <path d="M2102.368,1328.252 L2183.388,1375.028 L2136.611,1456.048 L2055.592,1409.271 z" fill="#2B5D3B"/>
        <path d="M1335.594,1328.253 L1416.613,1375.029 L1369.837,1456.049 L1288.817,1409.272 z" fill="#2B5D3B"/>
        <path d="M1254.573,1281.476 L1335.593,1328.253 L1288.816,1409.272 L1207.797,1362.496 z" fill="#2B5D3B"/>
        <path d="M1207.801,1362.495 L1126.781,1315.718 L1173.558,1234.699 L1254.578,1281.475 z" fill="#2B5D3B"/>
        <g>
          <path d="M487.8,1281.473 L406.781,1234.697 L360.004,1315.716 L441.024,1362.493 z" fill="#2B5D3B"/>
          <path d="M522.043,1409.27 L603.063,1456.047 L649.839,1375.027 L568.82,1328.251 z" fill="#2B5D3B"/>
          <path d="M441.024,1362.494 L522.043,1409.27 L568.82,1328.251 L487.801,1281.474 z" fill="#2B5D3B"/>
        </g>
        <path d="M185.424,1362.496 L266.444,1315.72 L219.667,1234.7 L138.648,1281.477 z" fill="#2B5D3B"/>
        <path d="M104.405,1409.273 L185.424,1362.496 L138.648,1281.477 L57.628,1328.253 z" fill="#2B5D3B"/>
        <path d="M57.628,1328.252 L-23.392,1375.028 L23.385,1456.048 L104.404,1409.271 z" fill="#2B5D3B"/>
        <path d="M824.402,1328.253 L743.383,1375.029 L790.159,1456.049 L871.179,1409.272 z" fill="#2B5D3B"/>
        <path d="M905.423,1281.476 L824.403,1328.253 L871.18,1409.272 L952.199,1362.496 z" fill="#2B5D3B"/>
        <path d="M952.195,1362.495 L1033.215,1315.718 L986.438,1234.699 L905.419,1281.475 z" fill="#2B5D3B"/>
        <path d="M1672.196,1281.473 L1753.215,1234.697 L1799.992,1315.716 L1718.972,1362.493 z" fill="#2B5D3B"/>
        <path d="M1637.953,1409.27 L1556.933,1456.047 L1510.157,1375.027 L1591.176,1328.251 z" fill="#2B5D3B"/>
        <path d="M1718.972,1362.494 L1637.953,1409.27 L1591.176,1328.251 L1672.195,1281.474 z" fill="#2B5D3B"/>
      </g>
      <g>
        <path d="M1718.98,1549.605 L1799.999,1596.381 L1753.223,1677.401 L1672.203,1630.624 z" fill="#2B5D3B"/>
        <path d="M1672.201,1630.625 L1591.182,1583.848 L1637.958,1502.829 L1718.977,1549.605 z" fill="#2B5D3B"/>
        <path d="M1591.183,1583.845 L1510.163,1537.068 L1556.94,1456.049 L1637.959,1502.825 z" fill="#2B5D3B"/>
        <path d="M952.205,1549.607 L871.185,1502.831 L824.409,1583.85 L905.428,1630.627 z" fill="#2B5D3B"/>
        <path d="M871.184,1502.827 L790.165,1456.051 L743.388,1537.07 L824.407,1583.847 z" fill="#2B5D3B"/>
        <path d="M952.209,1549.603 L1033.228,1596.38 L986.452,1677.399 L905.432,1630.622 z" fill="#2B5D3B"/>
        <g>
          <path d="M138.655,1630.62 L219.674,1677.397 L266.451,1596.377 L185.432,1549.601 z" fill="#2B5D3B"/>
          <path d="M57.636,1583.844 L138.655,1630.62 L185.432,1549.601 L104.412,1502.824 z" fill="#2B5D3B"/>
          <path d="M104.412,1502.824 L23.393,1456.047 L-23.384,1537.067 L57.635,1583.843 z" fill="#2B5D3B"/>
        </g>
        <path d="M441.017,1549.605 L359.997,1596.381 L406.774,1677.401 L487.793,1630.624 z" fill="#2B5D3B"/>
        <path d="M487.795,1630.625 L568.815,1583.848 L522.038,1502.829 L441.019,1549.605 z" fill="#2B5D3B"/>
        <path d="M568.814,1583.845 L649.833,1537.068 L603.056,1456.049 L522.037,1502.825 z" fill="#2B5D3B"/>
        <path d="M1207.792,1549.607 L1288.811,1502.831 L1335.587,1583.85 L1254.568,1630.627 z" fill="#2B5D3B"/>
        <path d="M1288.812,1502.827 L1369.832,1456.051 L1416.608,1537.07 L1335.589,1583.847 z" fill="#2B5D3B"/>
        <path d="M1207.787,1549.603 L1126.768,1596.38 L1173.545,1677.399 L1254.564,1630.622 z" fill="#2B5D3B"/>
        <path d="M2021.341,1630.62 L1940.322,1677.397 L1893.545,1596.377 L1974.564,1549.601 z" fill="#2B5D3B"/>
        <path d="M2102.36,1583.844 L2021.341,1630.62 L1974.564,1549.601 L2055.584,1502.824 z" fill="#2B5D3B"/>
        <path d="M2055.584,1502.824 L2136.604,1456.047 L2183.38,1537.067 L2102.361,1583.843 z" fill="#2B5D3B"/>
      </g>
      <g>
        <g>
          <path d="M1718.982,221.51 L1800.001,268.287 L1753.225,349.306 L1672.206,302.53 z" fill="#75E798"/>
          <path d="M1672.203,302.53 L1591.184,255.754 L1637.961,174.734 L1718.98,221.511 z" fill="#75E798"/>
          <path d="M1591.185,255.75 L1510.166,208.974 L1556.942,127.954 L1637.962,174.731 z" fill="#75E798"/>
          <path d="M952.207,221.513 L871.188,174.736 L824.411,255.756 L905.431,302.532 z" fill="#75E798"/>
          <path d="M871.187,174.733 L790.167,127.956 L743.391,208.976 L824.41,255.752 z" fill="#75E798"/>
          <path d="M952.211,221.509 L1033.231,268.285 L986.454,349.305 L905.435,302.528 z" fill="#75E798"/>
          <g>
            <path d="M138.657,302.526 L219.677,349.302 L266.453,268.283 L185.434,221.506 z" fill="#75E798"/>
            <path d="M57.638,255.749 L138.657,302.526 L185.434,221.506 L104.415,174.73 z" fill="#75E798"/>
            <path d="M104.414,174.73 L23.395,127.953 L-23.382,208.972 L57.638,255.749 z" fill="#75E798"/>
          </g>
          <path d="M441.019,221.51 L360,268.287 L406.776,349.306 L487.796,302.53 z" fill="#75E798"/>
          <path d="M487.798,302.53 L568.817,255.754 L522.041,174.734 L441.021,221.511 z" fill="#75E798"/>
          <path d="M568.816,255.75 L649.835,208.974 L603.059,127.954 L522.039,174.731 z" fill="#75E798"/>
          <path d="M1207.794,221.513 L1288.813,174.736 L1335.59,255.756 L1254.571,302.532 z" fill="#75E798"/>
          <path d="M1288.815,174.733 L1369.834,127.956 L1416.61,208.976 L1335.591,255.752 z" fill="#75E798"/>
          <path d="M1207.79,221.509 L1126.77,268.285 L1173.547,349.305 L1254.567,302.528 z" fill="#75E798"/>
          <path d="M2021.344,302.526 L1940.324,349.302 L1893.547,268.283 L1974.567,221.506 z" fill="#75E798"/>
          <path d="M2102.363,255.749 L2021.344,302.526 L1974.567,221.506 L2055.586,174.73 z" fill="#75E798"/>
          <path d="M2055.586,174.73 L2136.606,127.953 L2183.383,208.972 L2102.363,255.749 z" fill="#75E798"/>
        </g>
        <g>
          <path d="M1974.574,34.401 L1893.555,-12.376 L1940.331,-93.395 L2021.351,-46.619 z" fill="#75E798"/>
          <path d="M2055.594,81.177 L1974.574,34.401 L2021.351,-46.619 L2102.37,0.158 z" fill="#75E798"/>
          <path d="M2102.371,0.156 L2183.39,46.933 L2136.614,127.952 L2055.594,81.176 z" fill="#75E798"/>
          <path d="M1335.596,0.157 L1416.616,46.933 L1369.839,127.953 L1288.82,81.176 z" fill="#75E798"/>
          <path d="M1254.576,-46.62 L1335.595,0.157 L1288.819,81.176 L1207.799,34.4 z" fill="#75E798"/>
          <path d="M1207.803,34.399 L1126.784,-12.377 L1173.561,-93.397 L1254.58,-46.62 z" fill="#75E798"/>
          <g>
            <path d="M487.803,-46.622 L406.783,-93.399 L360.007,-12.38 L441.026,34.397 z" fill="#75E798"/>
            <path d="M522.046,81.175 L603.065,127.951 L649.842,46.932 L568.822,0.155 z" fill="#75E798"/>
            <path d="M441.026,34.398 L522.046,81.175 L568.822,0.155 L487.803,-46.621 z" fill="#75E798"/>
          </g>
          <path d="M185.427,34.401 L266.446,-12.376 L219.67,-93.395 L138.65,-46.619 z" fill="#75E798"/>
          <path d="M104.407,81.177 L185.427,34.401 L138.65,-46.619 L57.631,0.158 z" fill="#75E798"/>
          <path d="M57.63,0.156 L-23.389,46.933 L23.387,127.952 L104.407,81.176 z" fill="#75E798"/>
          <path d="M824.405,0.157 L743.385,46.933 L790.162,127.953 L871.181,81.176 z" fill="#75E798"/>
          <path d="M905.425,-46.62 L824.406,0.157 L871.182,81.176 L952.202,34.4 z" fill="#75E798"/>
          <path d="M952.198,34.399 L1033.217,-12.377 L986.44,-93.397 L905.421,-46.62 z" fill="#75E798"/>
          <path d="M1672.198,-46.622 L1753.218,-93.399 L1799.994,-12.38 L1718.975,34.397 z" fill="#75E798"/>
          <path d="M1637.955,81.175 L1556.936,127.951 L1510.159,46.932 L1591.179,0.155 z" fill="#75E798"/>
          <path d="M1718.974,34.398 L1637.955,81.175 L1591.178,0.155 L1672.198,-46.621 z" fill="#75E798"/>
        </g>
      </g>
    </g>
    <g>
      <g>
        <g>
          <path d="M360.002,1502.831 L360.002,1596.385 L266.449,1596.385 L266.449,1502.831 z" fill="#14321D"/>
          <path d="M1126.778,1502.826 L1126.778,1596.379 L1033.225,1596.379 L1033.225,1502.826 z" fill="#14321D"/>
          <path d="M1893.552,1502.825 L1893.552,1596.378 L1799.999,1596.378 L1799.999,1502.825 z" fill="#14321D"/>
        </g>
        <g>
          <path d="M360.002,1409.277 L360.002,1502.83 L266.449,1502.83 L266.449,1409.277 z" fill="#1C4128"/>
          <path d="M1126.777,1409.272 L1126.777,1502.825 L1033.224,1502.825 L1033.224,1409.272 z" fill="#1C4128"/>
          <path d="M1893.552,1409.271 L1893.552,1502.824 L1799.999,1502.824 L1799.999,1409.271 z" fill="#1C4128"/>
        </g>
        <g>
          <path d="M360.002,523.879 L360.002,430.326 L266.449,430.326 L266.449,523.879 z" fill="#58B274"/>
          <path d="M1126.777,523.873 L1126.777,430.32 L1033.224,430.32 L1033.224,523.873 z" fill="#58B274"/>
          <path d="M1893.552,523.872 L1893.552,430.319 L1799.999,430.319 L1799.999,523.872 z" fill="#58B274"/>
        </g>
        <g>
          <path d="M266.449,174.734 L266.449,268.287 L360.002,268.287 L360.002,174.734 z" fill="#64C883"/>
          <path d="M1033.224,174.728 L1033.224,268.281 L1126.777,268.281 L1126.777,174.728 z" fill="#64C883"/>
          <path d="M1799.999,174.727 L1799.999,268.28 L1893.552,268.28 L1893.552,174.727 z" fill="#64C883"/>
        </g>
        <g>
          <path d="M266.449,81.18 L266.449,174.734 L360.002,174.734 L360.002,81.18 z" fill="#6AD28A"/>
          <path d="M1033.224,81.175 L1033.224,174.728 L1126.777,174.728 L1126.778,81.175 z" fill="#6AD28A"/>
          <path d="M1799.999,81.174 L1799.999,174.727 L1893.552,174.727 L1893.552,81.174 z" fill="#6AD28A"/>
        </g>
        <g>
          <path d="M219.672,349.306 L266.449,430.326 L360.002,430.326 L406.778,349.306 L360.002,268.287 L266.449,268.287 z" fill="#5EBD7C"/>
          <path d="M986.447,349.3 L1033.224,430.32 L1126.777,430.32 L1173.554,349.301 L1126.777,268.281 L1033.224,268.281 z" fill="#5EBD7C"/>
          <path d="M1753.222,349.3 L1799.999,430.319 L1893.552,430.319 L1940.328,349.3 L1893.552,268.28 L1799.999,268.28 z" fill="#5EBD7C"/>
        </g>
        <g>
          <path d="M360.002,81.18 L360.002,-12.373 L266.449,-12.373 L266.449,81.18 z" fill="#6FDD91"/>
          <path d="M1126.777,81.174 L1126.778,-12.379 L1033.224,-12.379 L1033.224,81.174 z" fill="#6FDD91"/>
          <path d="M1893.552,81.174 L1893.552,-12.379 L1799.999,-12.379 L1799.999,81.174 z" fill="#6FDD91"/>
        </g>
        <g>
          <path d="M359.998,1060.134 L359.998,966.581 L266.445,966.581 L266.445,1060.134 z" fill="#39774C"/>
          <path d="M1126.774,1060.128 L1126.774,966.575 L1033.221,966.575 L1033.221,1060.128 z" fill="#39774C"/>
          <path d="M1893.548,1060.128 L1893.548,966.574 L1799.995,966.574 L1799.995,1060.128 z" fill="#39774C"/>
        </g>
        <g>
          <path d="M360.001,966.578 L360.001,873.025 L266.448,873.025 L266.448,966.578 z" fill="#408455"/>
          <path d="M1126.776,966.572 L1126.776,873.019 L1033.223,873.019 L1033.223,966.572 z" fill="#408455"/>
          <path d="M1893.551,966.572 L1893.551,873.018 L1799.998,873.018 L1799.998,966.572 z" fill="#408455"/>
        </g>
        <g>
          <path d="M266.448,617.433 L266.448,710.986 L360.001,710.986 L360.001,617.433 z" fill="#4C9B65"/>
          <path d="M1033.223,617.427 L1033.223,710.98 L1126.776,710.98 L1126.776,617.427 z" fill="#4C9B65"/>
          <path d="M1799.998,617.426 L1799.998,710.979 L1893.551,710.979 L1893.551,617.426 z" fill="#4C9B65"/>
        </g>
        <g>
          <path d="M266.448,873.025 L360.001,873.025 L406.778,792.005 L360.001,710.986 L266.448,710.986 L219.671,792.005 z" fill="#46905D"/>
          <path d="M1033.223,873.019 L1126.777,873.019 L1173.553,792 L1126.776,710.98 L1033.223,710.98 L986.447,792 z" fill="#46905D"/>
          <path d="M1799.998,873.018 L1893.551,873.018 L1940.328,791.999 L1893.551,710.98 L1799.998,710.979 L1753.221,791.999 z" fill="#46905D"/>
        </g>
        <g>
          <path d="M266.448,523.88 L266.448,617.433 L360.001,617.433 L360.001,523.88 z" fill="#53A76D"/>
          <path d="M1033.223,523.874 L1033.223,617.427 L1126.776,617.427 L1126.776,523.874 z" fill="#53A76D"/>
          <path d="M1799.998,523.873 L1799.998,617.427 L1893.551,617.427 L1893.551,523.873 z" fill="#53A76D"/>
        </g>
        <g>
          <path d="M360.004,1060.135 L360.004,1153.688 L266.451,1153.688 L266.451,1060.135 z" fill="#326B44"/>
          <path d="M1126.78,1060.13 L1126.78,1153.683 L1033.227,1153.683 L1033.226,1060.13 z" fill="#326B44"/>
          <path d="M1893.554,1060.129 L1893.554,1153.682 L1800.001,1153.682 L1800.001,1060.129 z" fill="#326B44"/>
        </g>
        <g>
          <path d="M266.451,1409.281 L266.451,1315.727 L360.004,1315.727 L360.004,1409.28 z" fill="#245032"/>
          <path d="M1033.227,1409.275 L1033.227,1315.722 L1126.78,1315.722 L1126.78,1409.275 z" fill="#245032"/>
          <path d="M1800.001,1409.274 L1800.001,1315.721 L1893.554,1315.721 L1893.554,1409.274 z" fill="#245032"/>
        </g>
        <g>
          <path d="M219.674,1234.708 L266.451,1153.688 L360.004,1153.688 L406.781,1234.708 L360.004,1315.727 L266.451,1315.727 z" fill="#2B5D3B"/>
          <path d="M986.45,1234.702 L1033.227,1153.683 L1126.78,1153.683 L1173.556,1234.702 L1126.78,1315.722 L1033.227,1315.722 z" fill="#2B5D3B"/>
          <path d="M1753.224,1234.702 L1800.001,1153.682 L1893.554,1153.682 L1940.331,1234.701 L1893.554,1315.721 L1800.001,1315.721 z" fill="#2B5D3B"/>
        </g>
      </g>
      <g>
        <path d="M743.39,745.229 L743.39,651.676 L649.837,651.676 L649.837,745.229 z" fill="#58B274"/>
        <path d="M649.837,396.084 L649.837,489.637 L743.391,489.637 L743.391,396.084 z" fill="#64C883"/>
        <path d="M649.837,302.531 L649.837,396.084 L743.391,396.084 L743.391,302.531 z" fill="#6AD28A"/>
        <path d="M603.061,570.657 L649.837,651.676 L743.39,651.676 L790.167,570.657 L743.39,489.637 L649.837,489.637 z" fill="#5EBD7C"/>
        <path d="M743.391,302.531 L743.391,208.977 L649.837,208.977 L649.837,302.531 z" fill="#6FDD91"/>
        <path d="M743.387,1281.484 L743.387,1187.931 L649.834,1187.931 L649.834,1281.484 z" fill="#39774C"/>
        <path d="M743.389,1187.928 L743.389,1094.375 L649.836,1094.375 L649.836,1187.928 z" fill="#408455"/>
        <path d="M649.836,838.783 L649.836,932.336 L743.39,932.336 L743.39,838.783 z" fill="#4C9B65"/>
        <path d="M649.836,1094.375 L743.39,1094.375 L790.166,1013.356 L743.39,932.336 L649.836,932.336 L603.06,1013.356 z" fill="#46905D"/>
        <path d="M649.836,745.23 L649.836,838.783 L743.39,838.783 L743.39,745.23 z" fill="#53A76D"/>
        <path d="M743.393,1281.486 L743.393,1375.039 L649.84,1375.039 L649.84,1281.486 z" fill="#326B44"/>
        <path d="M649.84,1630.631 L649.84,1537.078 L743.393,1537.078 L743.393,1630.631 z" fill="#245032"/>
        <path d="M603.063,1456.058 L649.84,1375.039 L743.393,1375.039 L790.169,1456.058 L743.393,1537.078 L649.84,1537.078 z" fill="#2B5D3B"/>
        <path d="M649.835,-46.62 L649.835,46.933 L743.388,46.933 L743.388,-46.62 z" fill="#7AF19F"/>
        <path d="M603.058,127.952 L649.835,208.972 L743.388,208.972 L790.165,127.952 L743.388,46.933 L649.835,46.933 z" fill="#75E798"/>
      </g>
      <g>
        <path d="M1510.164,745.229 L1510.164,651.676 L1416.611,651.676 L1416.611,745.229 z" fill="#58B274"/>
        <path d="M1416.611,396.084 L1416.611,489.637 L1510.164,489.637 L1510.164,396.084 z" fill="#64C883"/>
        <path d="M1416.611,302.531 L1416.611,396.084 L1510.164,396.084 L1510.164,302.531 z" fill="#6AD28A"/>
        <path d="M1369.834,570.657 L1416.611,651.676 L1510.164,651.676 L1556.941,570.657 L1510.164,489.637 L1416.611,489.637 z" fill="#5EBD7C"/>
        <path d="M1510.164,302.531 L1510.164,208.977 L1416.611,208.977 L1416.611,302.531 z" fill="#6FDD91"/>
        <path d="M1510.161,1281.484 L1510.161,1187.931 L1416.608,1187.931 L1416.608,1281.484 z" fill="#39774C"/>
        <path d="M1510.163,1187.928 L1510.163,1094.375 L1416.61,1094.375 L1416.61,1187.928 z" fill="#408455"/>
        <path d="M1416.61,838.783 L1416.61,932.336 L1510.163,932.336 L1510.163,838.783 z" fill="#4C9B65"/>
        <path d="M1416.61,1094.375 L1510.163,1094.375 L1556.94,1013.356 L1510.163,932.336 L1416.61,932.336 L1369.833,1013.356 z" fill="#46905D"/>
        <path d="M1416.61,745.23 L1416.61,838.783 L1510.163,838.783 L1510.163,745.23 z" fill="#53A76D"/>
        <path d="M1510.167,1281.486 L1510.167,1375.039 L1416.613,1375.039 L1416.613,1281.486 z" fill="#326B44"/>
        <path d="M1416.614,1630.631 L1416.613,1537.078 L1510.167,1537.078 L1510.167,1630.631 z" fill="#245032"/>
        <path d="M1369.837,1456.058 L1416.613,1375.039 L1510.167,1375.039 L1556.943,1456.058 L1510.167,1537.078 L1416.613,1537.078 z" fill="#2B5D3B"/>
        <path d="M1416.609,-46.62 L1416.609,46.933 L1510.162,46.933 L1510.162,-46.62 z" fill="#7AF19F"/>
        <path d="M1369.832,127.952 L1416.608,208.972 L1510.162,208.972 L1556.938,127.952 L1510.162,46.933 L1416.609,46.933 z" fill="#75E798"/>
      </g>
      <g>
        <path d="M2136.611,570.657 L2183.387,651.676 L2276.941,651.676 L2323.717,570.657 L2276.941,489.637 L2183.387,489.637 z" fill="#5EBD7C"/>
        <path d="M2183.386,1094.375 L2276.94,1094.375 L2323.717,1013.356 L2276.94,932.336 L2183.387,932.336 L2136.61,1013.356 z" fill="#46905D"/>
        <path d="M2136.613,1456.058 L2183.39,1375.039 L2276.943,1375.039 L2323.72,1456.058 L2276.943,1537.078 L2183.39,1537.078 z" fill="#2B5D3B"/>
        <path d="M2136.608,127.952 L2183.385,208.972 L2276.938,208.972 L2323.715,127.952 L2276.938,46.933 L2183.385,46.933 z" fill="#75E798"/>
      </g>
      <g>
        <path d="M-163.719,570.65 L-116.942,651.669 L-23.389,651.669 L23.387,570.65 L-23.389,489.63 L-116.942,489.63 z" fill="#5EBD7C"/>
        <path d="M-116.943,1094.368 L-23.39,1094.368 L23.387,1013.349 L-23.39,932.329 L-116.943,932.329 L-163.72,1013.349 z" fill="#46905D"/>
        <path d="M-163.717,1456.051 L-116.94,1375.032 L-23.387,1375.032 L23.39,1456.051 L-23.387,1537.071 L-116.94,1537.071 z" fill="#2B5D3B"/>
        <path d="M-163.721,127.945 L-116.945,208.965 L-23.392,208.965 L23.385,127.945 L-23.392,46.926 L-116.945,46.926 z" fill="#75E798"/>
      </g>
    </g>
  </g>
</svg>
