<?xml version="1.0" encoding="UTF-8"?>
<!DOCTYPE svg PUBLIC "-//W3C//DTD SVG 1.1//EN" "http://www.w3.org/Graphics/SVG/1.1/DTD/svg11.dtd">
<svg version="1.1" xmlns="http://www.w3.org/2000/svg" xmlns:xlink="http://www.w3.org/1999/xlink" x="0" y="0" width="4000" height="4000" viewBox="0, 0, 4000, 4000">
  <g id="CenterStar">
    <g>
      <path d="M1950.272,1750 L2000,1500 L2049.728,1750 L2000,2000 z" fill="#A1846B"/>
      <path d="M2049.728,2250 L2000,2500 L1950.272,2250 L2000,2000 z" fill="#A1846B"/>
      <path d="M2141.614,1788.06 L2353.553,1646.447 L2211.94,1858.386 L2000,2000 z" fill="#A1846B"/>
      <path d="M1858.386,2211.94 L1646.446,2353.553 L1788.06,2141.614 L2000,2000 z" fill="#A1846B"/>
      <path d="M2250,1950.272 L2500,2000 L2250,2049.728 L2000,2000 z" fill="#A1846B"/>
      <path d="M1750,2049.728 L1500,2000 L1750,1950.272 L2000,2000 z" fill="#A1846B"/>
      <path d="M2211.94,2141.614 L2353.553,2353.553 L2141.614,2211.94 L2000,2000 z" fill="#A1846B"/>
      <path d="M1788.06,1858.386 L1646.447,1646.446 L1858.386,1788.06 L2000,2000 z" fill="#A1846B"/>
    </g>
    <g>
      <path d="M2049.728,1750 L2191.342,1538.06 L2141.614,1788.06 L2000,2000 z" fill="#A1846B"/>
      <path d="M1950.272,2250 L1808.658,2461.94 L1858.386,2211.94 L2000,2000 z" fill="#A1846B"/>
      <path d="M2211.94,1858.386 L2461.94,1808.659 L2250,1950.272 L2000,2000 z" fill="#A1846B"/>
      <path d="M1788.06,2141.614 L1538.06,2191.342 L1750,2049.728 L2000,2000 z" fill="#A1846B"/>
      <path d="M2250,2049.728 L2461.94,2191.342 L2211.94,2141.614 L2000,2000 z" fill="#A1846B"/>
      <path d="M1750,1950.272 L1538.06,1808.658 L1788.06,1858.386 L2000,2000 z" fill="#A1846B"/>
      <path d="M2141.614,2211.94 L2191.342,2461.94 L2049.728,2250 L2000,2000 z" fill="#A1846B"/>
      <path d="M1858.386,1788.06 L1808.659,1538.06 L1950.272,1750 L2000,2000 z" fill="#A1846B"/>
    </g>
  </g>
  <g id="PinkArms">
    <g id="PinkArm1">
      <path d="M2141.614,1288.061 L2237.285,1057.091 L2287.013,1307.091 L2191.342,1538.06 z" fill="#9B6E86"/>
      <path d="M2287.013,1307.091 L2498.952,1165.477 L2403.281,1396.447 L2191.342,1538.06 z" fill="#9B6E86"/>
      <path d="M2049.728,1750 L2191.342,1538.06 L2141.614,1788.06 L2000,2000 z" fill="#614353"/>
      <path d="M2000,1500 L2141.614,1288.06 L2191.342,1538.06 L2049.728,1750 z" fill="#7D586B"/>
      <path d="M2191.342,1538.06 L2403.282,1396.447 L2353.553,1646.447 L2141.614,1788.06 z" fill="#7D586B"/>
      <path d="M2237.285,1057.091 L2449.224,915.477 L2498.952,1165.477 L2287.013,1307.091 z" fill="#B4809B"/>
      <path d="M2237.285,807.091 L2449.225,665.477 L2449.225,915.477 L2237.285,1057.091 z" fill="#CC92B0"/>
      <path d="M2449.225,915.477 L2626.001,738.701 L2675.729,988.701 L2498.952,1165.477 z" fill="#CC92B0"/>
      <path d="M2449.224,665.477 L2626.001,488.701 L2626.001,738.701 L2449.224,915.477 z" fill="#EAA8CB"/>
    </g>
    <g id="PinkArm2">
      <path d="M2603.553,1596.719 L2834.523,1501.048 L2692.909,1712.988 L2461.939,1808.659 z" fill="#9B6E86"/>
      <path d="M2692.909,1712.988 L2942.91,1762.716 L2711.939,1858.387 L2461.94,1808.659 z" fill="#9B6E86"/>
      <path d="M2211.94,1858.386 L2461.94,1808.659 L2250,1950.272 L2000,2000 z" fill="#614353"/>
      <path d="M2353.553,1646.447 L2603.553,1596.719 L2461.94,1808.659 L2211.94,1858.386 z" fill="#7D586B"/>
      <path d="M2461.94,1808.659 L2711.94,1858.387 L2500,2000 L2250,1950.272 z" fill="#7D586B"/>
      <path d="M2834.523,1501.048 L3084.523,1550.776 L2942.909,1762.716 L2692.91,1712.988 z" fill="#B4809B"/>
      <path d="M3011.3,1324.271 L3261.3,1374 L3084.523,1550.776 L2834.523,1501.048 z" fill="#CC92B0"/>
      <path d="M3084.523,1550.776 L3334.523,1550.776 L3192.909,1762.716 L2942.909,1762.716 z" fill="#CC92B0"/>
      <path d="M3261.3,1374 L3511.299,1374 L3334.523,1550.776 L3084.523,1550.776 z" fill="#EAA8CB"/>
    </g>
    <g id="PinkArm3">
      <path d="M2711.939,2141.614 L2942.909,2237.285 L2692.909,2287.013 L2461.939,2191.342 z" fill="#9B6E86"/>
      <path d="M2692.909,2287.013 L2834.522,2498.952 L2603.553,2403.281 L2461.939,2191.342 z" fill="#9B6E86"/>
      <path d="M2250,2049.728 L2461.939,2191.342 L2211.939,2141.614 L2000,2000 z" fill="#614353"/>
      <path d="M2500,2000 L2711.939,2141.614 L2461.939,2191.342 L2250,2049.728 z" fill="#7D586B"/>
      <path d="M2461.939,2191.342 L2603.553,2403.281 L2353.553,2353.553 L2211.939,2141.614 z" fill="#7D586B"/>
      <path d="M2942.909,2237.285 L3084.523,2449.224 L2834.522,2498.952 L2692.909,2287.013 z" fill="#B4809B"/>
      <path d="M3192.909,2237.285 L3334.523,2449.225 L3084.522,2449.225 L2942.909,2237.285 z" fill="#CC92B0"/>
      <path d="M3084.522,2449.225 L3261.299,2626.001 L3011.299,2675.729 L2834.523,2498.952 z" fill="#CC92B0"/>
      <path d="M3334.523,2449.224 L3511.299,2626.001 L3261.299,2626.001 L3084.523,2449.224 z" fill="#EAA8CB"/>
    </g>
    <g id="PinkArm4">
      <path d="M2403.281,2603.553 L2498.951,2834.523 L2287.012,2692.909 L2191.341,2461.94 z" fill="#9B6E86"/>
      <path d="M2287.012,2692.909 L2237.284,2942.909 L2141.613,2711.939 L2191.341,2461.94 z" fill="#9B6E86"/>
      <path d="M2141.613,2211.94 L2191.341,2461.94 L2049.728,2250 L2000,2000 z" fill="#614353"/>
      <path d="M2353.553,2353.553 L2403.281,2603.553 L2191.341,2461.94 L2141.613,2211.94 z" fill="#7D586B"/>
      <path d="M2191.341,2461.94 L2141.613,2711.94 L2000,2500 L2049.728,2250 z" fill="#7D586B"/>
      <path d="M2498.952,2834.523 L2449.224,3084.523 L2237.284,2942.909 L2287.012,2692.909 z" fill="#B4809B"/>
      <path d="M2675.728,3011.3 L2626,3261.3 L2449.224,3084.523 L2498.952,2834.523 z" fill="#CC92B0"/>
      <path d="M2449.224,3084.523 L2449.223,3334.523 L2237.284,3192.909 L2237.284,2942.91 z" fill="#CC92B0"/>
      <path d="M2626,3261.3 L2626,3511.3 L2449.224,3334.523 L2449.224,3084.523 z" fill="#EAA8CB"/>
    </g>
    <g id="PinkArm5">
      <path d="M1858.386,2711.939 L1762.715,2942.909 L1712.987,2692.909 L1808.658,2461.939 z" fill="#9B6E86"/>
      <path d="M1712.987,2692.909 L1501.047,2834.523 L1596.718,2603.553 L1808.658,2461.94 z" fill="#9B6E86"/>
      <path d="M1950.272,2250 L1808.658,2461.94 L1858.386,2211.94 L2000,2000 z" fill="#614353"/>
      <path d="M2000,2500 L1858.386,2711.939 L1808.658,2461.94 L1950.272,2250 z" fill="#7D586B"/>
      <path d="M1808.658,2461.94 L1596.718,2603.553 L1646.446,2353.553 L1858.386,2211.94 z" fill="#7D586B"/>
      <path d="M1762.715,2942.909 L1550.775,3084.523 L1501.047,2834.523 L1712.987,2692.909 z" fill="#B4809B"/>
      <path d="M1762.715,3192.909 L1550.775,3334.523 L1550.775,3084.523 L1762.715,2942.909 z" fill="#CC92B0"/>
      <path d="M1550.775,3084.523 L1373.999,3261.299 L1324.271,3011.299 L1501.047,2834.523 z" fill="#CC92B0"/>
      <path d="M1550.775,3334.523 L1373.999,3511.299 L1373.999,3261.299 L1550.775,3084.523 z" fill="#EAA8CB"/>
    </g>
    <g id="PinkArm6">
      <path d="M1396.447,2403.281 L1165.477,2498.951 L1307.09,2287.012 L1538.06,2191.341 z" fill="#9B6E86"/>
      <path d="M1307.09,2287.012 L1057.09,2237.284 L1288.06,2141.613 L1538.06,2191.341 z" fill="#9B6E86"/>
      <path d="M1788.06,2141.613 L1538.06,2191.341 L1750,2049.728 L2000,2000 z" fill="#614353"/>
      <path d="M1646.446,2353.553 L1396.447,2403.281 L1538.06,2191.341 L1788.06,2141.613 z" fill="#7D586B"/>
      <path d="M1538.06,2191.341 L1288.06,2141.613 L1500,2000 L1750,2049.728 z" fill="#7D586B"/>
      <path d="M1165.477,2498.952 L915.477,2449.224 L1057.091,2237.284 L1307.09,2287.012 z" fill="#B4809B"/>
      <path d="M988.7,2675.728 L738.7,2626 L915.477,2449.224 L1165.476,2498.952 z" fill="#CC92B0"/>
      <path d="M915.477,2449.224 L665.477,2449.223 L807.091,2237.284 L1057.09,2237.284 z" fill="#CC92B0"/>
      <path d="M738.7,2626 L488.7,2626 L665.477,2449.223 L915.477,2449.224 z" fill="#EAA8CB"/>
    </g>
    <g id="PinkArm7">
      <path d="M1288.06,1858.386 L1057.091,1762.715 L1307.091,1712.987 L1538.06,1808.658 z" fill="#9B6E86"/>
      <path d="M1307.091,1712.987 L1165.477,1501.047 L1396.447,1596.718 L1538.06,1808.658 z" fill="#9B6E86"/>
      <path d="M1750,1950.272 L1538.06,1808.658 L1788.06,1858.386 L2000,2000 z" fill="#614353"/>
      <path d="M1500,2000 L1288.06,1858.386 L1538.06,1808.658 L1750,1950.272 z" fill="#7D586B"/>
      <path d="M1538.06,1808.658 L1396.447,1596.718 L1646.447,1646.446 L1788.06,1858.386 z" fill="#7D586B"/>
      <path d="M1057.091,1762.715 L915.477,1550.775 L1165.477,1501.047 L1307.091,1712.987 z" fill="#B4809B"/>
      <path d="M807.091,1762.715 L665.477,1550.775 L915.477,1550.775 L1057.091,1762.715 z" fill="#CC92B0"/>
      <path d="M915.477,1550.775 L738.701,1373.999 L988.701,1324.271 L1165.477,1501.047 z" fill="#CC92B0"/>
      <path d="M665.477,1550.776 L488.701,1373.999 L738.701,1373.999 L915.477,1550.776 z" fill="#EAA8CB"/>
    </g>
    <g id="PinkArm8">
      <path d="M1596.719,1396.447 L1501.048,1165.477 L1712.988,1307.09 L1808.659,1538.06 z" fill="#9B6E86"/>
      <path d="M1712.988,1307.091 L1762.716,1057.091 L1858.387,1288.06 L1808.659,1538.06 z" fill="#9B6E86"/>
      <path d="M1858.386,1788.06 L1808.659,1538.06 L1950.272,1750 L2000,2000 z" fill="#614353"/>
      <path d="M1646.447,1646.447 L1596.719,1396.447 L1808.659,1538.06 L1858.386,1788.06 z" fill="#7D586B"/>
      <path d="M1808.659,1538.06 L1858.387,1288.061 L2000,1500 L1950.272,1750 z" fill="#7D586B"/>
      <path d="M1501.048,1165.477 L1550.776,915.477 L1762.716,1057.091 L1712.988,1307.091 z" fill="#B4809B"/>
      <path d="M1324.271,988.7 L1374,738.7 L1550.776,915.477 L1501.048,1165.477 z" fill="#CC92B0"/>
      <path d="M1550.776,915.477 L1550.776,665.477 L1762.716,807.091 L1762.716,1057.091 z" fill="#CC92B0"/>
      <path d="M1374,738.7 L1374,488.7 L1550.776,665.477 L1550.776,915.477 z" fill="#EAA8CB"/>
    </g>
  </g>
  <g id="BlueArms">
    <g id="BlueArm1">
      <path d="M1762.716,1057.091 L1904.33,845.151 L2000,1076.121 L1858.387,1288.06 z" fill="#2E619F"/>
      <path d="M2000,1076.121 L2095.671,845.151 L2237.285,1057.091 L2141.614,1288.06 z" fill="#2E619F"/>
      <path d="M1904.33,595.151 L2000,364.181 L2095.671,595.151 L2000,826.121 z" fill="#4B96F1"/>
      <path d="M1904.33,845.151 L1904.33,595.151 L2000,826.121 L2000,1076.121 z" fill="#4185D6"/>
      <path d="M2000,826.121 L2095.671,595.151 L2095.671,845.151 L2000,1076.121 z" fill="#4185D6"/>
      <path d="M1858.387,1288.06 L2000,1076.121 L2141.614,1288.06 L2000,1500 z" fill="#224A7B"/>
      <path d="M1762.716,807.091 L1904.33,595.151 L1904.33,845.151 L1762.716,1057.091 z" fill="#3874BB"/>
      <path d="M2095.671,595.151 L2237.285,807.091 L2237.285,1057.091 L2095.671,845.151 z" fill="#3874BB"/>
    </g>
    <g id="BlueArm2">
      <path d="M2498.952,1165.477 L2748.952,1115.749 L2653.282,1346.719 L2403.282,1396.447 z" fill="#2E619F"/>
      <path d="M2653.282,1346.719 L2884.251,1251.048 L2834.523,1501.048 L2603.553,1596.719 z" fill="#2E619F"/>
      <path d="M2925.729,938.972 L3156.699,843.302 L3061.028,1074.271 L2830.059,1169.942 z" fill="#4B96F1"/>
      <path d="M2748.952,1115.749 L2925.729,938.972 L2830.058,1169.942 L2653.282,1346.719 z" fill="#4185D6"/>
      <path d="M2830.058,1169.942 L3061.028,1074.271 L2884.251,1251.048 L2653.281,1346.719 z" fill="#4185D6"/>
      <path d="M2403.282,1396.447 L2653.282,1346.719 L2603.553,1596.719 L2353.553,1646.447 z" fill="#224A7B"/>
      <path d="M2675.729,988.7 L2925.729,938.972 L2748.952,1115.749 L2498.952,1165.477 z" fill="#3874BB"/>
      <path d="M3061.028,1074.271 L3011.3,1324.271 L2834.523,1501.048 L2884.251,1251.048 z" fill="#3874BB"/>
    </g>
    <g id="BlueArm3">
      <path d="M2942.91,1762.716 L3154.849,1904.329 L2923.88,2000 L2711.94,1858.387 z" fill="#2E619F"/>
      <path d="M2923.88,2000 L3154.849,2095.671 L2942.91,2237.285 L2711.94,2141.614 z" fill="#2E619F"/>
      <path d="M3404.849,1904.329 L3635.819,2000 L3404.849,2095.671 L3173.88,2000 z" fill="#4B96F1"/>
      <path d="M3154.849,1904.329 L3404.849,1904.329 L3173.88,2000 L2923.88,2000 z" fill="#4185D6"/>
      <path d="M3173.88,2000 L3404.849,2095.671 L3154.849,2095.671 L2923.88,2000 z" fill="#4185D6"/>
      <path d="M2711.94,1858.386 L2923.88,2000 L2711.94,2141.614 L2500,2000 z" fill="#224A7B"/>
      <path d="M3192.91,1762.716 L3404.849,1904.329 L3154.849,1904.329 L2942.91,1762.716 z" fill="#3874BB"/>
      <path d="M3404.849,2095.671 L3192.91,2237.285 L2942.91,2237.285 L3154.849,2095.671 z" fill="#3874BB"/>
    </g>
    <g id="BlueArm4">
      <path d="M2834.523,2498.952 L2884.251,2748.952 L2653.281,2653.282 L2603.554,2403.282 z" fill="#2E619F"/>
      <path d="M2653.281,2653.282 L2748.953,2884.251 L2498.952,2834.523 L2403.282,2603.553 z" fill="#2E619F"/>
      <path d="M3061.028,2925.729 L3156.699,3156.699 L2925.729,3061.028 L2830.058,2830.059 z" fill="#4B96F1"/>
      <path d="M2884.251,2748.952 L3061.028,2925.729 L2830.058,2830.058 L2653.281,2653.282 z" fill="#4185D6"/>
      <path d="M2830.058,2830.058 L2925.729,3061.028 L2748.952,2884.251 L2653.281,2653.282 z" fill="#4185D6"/>
      <path d="M2603.554,2403.282 L2653.281,2653.282 L2403.282,2603.553 L2353.554,2353.553 z" fill="#224A7B"/>
      <path d="M3011.3,2675.729 L3061.028,2925.729 L2884.251,2748.952 L2834.523,2498.952 z" fill="#3874BB"/>
      <path d="M2925.729,3061.028 L2675.729,3011.3 L2498.952,2834.523 L2748.952,2884.251 z" fill="#3874BB"/>
    </g>
    <g id="BlueArm5">
      <path d="M2237.284,2942.909 L2095.671,3154.849 L2000,2923.879 L2141.614,2711.94 z" fill="#2E619F"/>
      <path d="M2000,2923.879 L1904.329,3154.849 L1762.715,2942.909 L1858.386,2711.94 z" fill="#2E619F"/>
      <path d="M2095.671,3404.849 L2000,3635.819 L1904.329,3404.849 L2000,3173.879 z" fill="#4B96F1"/>
      <path d="M2095.671,3154.849 L2095.671,3404.849 L2000,3173.879 L2000,2923.879 z" fill="#4185D6"/>
      <path d="M2000,3173.879 L1904.329,3404.849 L1904.329,3154.849 L2000,2923.879 z" fill="#4185D6"/>
      <path d="M2141.614,2711.94 L2000,2923.879 L1858.386,2711.94 L2000,2500 z" fill="#224A7B"/>
      <path d="M2237.284,3192.909 L2095.671,3404.849 L2095.671,3154.849 L2237.284,2942.909 z" fill="#3874BB"/>
      <path d="M1904.329,3404.849 L1762.716,3192.909 L1762.716,2942.909 L1904.329,3154.849 z" fill="#3874BB"/>
    </g>
    <g id="BlueArm6">
      <path d="M1501.048,2834.523 L1251.048,2884.251 L1346.719,2653.281 L1596.719,2603.553 z" fill="#2E619F"/>
      <path d="M1346.719,2653.281 L1115.749,2748.952 L1165.477,2498.952 L1396.447,2403.281 z" fill="#2E619F"/>
      <path d="M1074.271,3061.028 L843.301,3156.698 L938.972,2925.729 L1169.942,2830.058 z" fill="#4B96F1"/>
      <path d="M1251.048,2884.251 L1074.271,3061.028 L1169.942,2830.058 L1346.719,2653.281 z" fill="#4185D6"/>
      <path d="M1169.942,2830.058 L938.972,2925.729 L1115.749,2748.952 L1346.719,2653.281 z" fill="#4185D6"/>
      <path d="M1596.719,2603.553 L1346.719,2653.281 L1396.447,2403.281 L1646.447,2353.553 z" fill="#224A7B"/>
      <path d="M1324.271,3011.3 L1074.271,3061.028 L1251.048,2884.251 L1501.048,2834.523 z" fill="#3874BB"/>
      <path d="M938.972,2925.729 L988.7,2675.729 L1165.477,2498.952 L1115.749,2748.952 z" fill="#3874BB"/>
    </g>
    <g id="BlueArm7">
      <path d="M1057.091,2237.284 L845.151,2095.671 L1076.121,2000 L1288.06,2141.614 z" fill="#2E619F"/>
      <path d="M1076.121,2000 L845.151,1904.329 L1057.091,1762.715 L1288.061,1858.386 z" fill="#2E619F"/>
      <path d="M595.151,2095.671 L364.181,2000 L595.151,1904.329 L826.121,2000 z" fill="#4B96F1"/>
      <path d="M845.151,2095.671 L595.151,2095.671 L826.121,2000 L1076.121,2000 z" fill="#4185D6"/>
      <path d="M826.121,2000 L595.151,1904.329 L845.151,1904.329 L1076.121,2000 z" fill="#4185D6"/>
      <path d="M1288.06,2141.614 L1076.121,2000 L1288.06,1858.386 L1500,2000 z" fill="#224A7B"/>
      <path d="M807.091,2237.284 L595.151,2095.671 L845.151,2095.671 L1057.091,2237.284 z" fill="#3874BB"/>
      <path d="M595.151,1904.329 L807.091,1762.715 L1057.091,1762.715 L845.151,1904.329 z" fill="#3874BB"/>
    </g>
    <g id="BlueArm8">
      <path d="M1165.477,1501.048 L1115.749,1251.048 L1346.719,1346.718 L1396.447,1596.718 z" fill="#2E619F"/>
      <path d="M1346.719,1346.719 L1251.048,1115.749 L1501.048,1165.477 L1596.719,1396.447 z" fill="#2E619F"/>
      <path d="M938.973,1074.271 L843.302,843.301 L1074.271,938.972 L1169.942,1169.942 z" fill="#4B96F1"/>
      <path d="M1115.749,1251.048 L938.973,1074.271 L1169.942,1169.942 L1346.719,1346.719 z" fill="#4185D6"/>
      <path d="M1169.942,1169.942 L1074.272,938.972 L1251.048,1115.749 L1346.719,1346.718 z" fill="#4185D6"/>
      <path d="M1396.447,1596.718 L1346.719,1346.718 L1596.719,1396.447 L1646.447,1646.447 z" fill="#224A7B"/>
      <path d="M988.701,1324.271 L938.973,1074.271 L1115.749,1251.048 L1165.477,1501.048 z" fill="#3874BB"/>
      <path d="M1074.271,938.972 L1324.271,988.7 L1501.048,1165.477 L1251.048,1115.749 z" fill="#3874BB"/>
    </g>
  </g>
  <g id="RadialPaths">
    <g id="RadialpathsCW" display="none">
      <g>
        <path d="M1950.272,1750 L2000,1500 L2049.728,1750 L2000,2000 z" fill="#2B442C"/>
        <path d="M1712.988,1307.091 L1762.716,1057.091 L1858.387,1288.06 L1808.659,1538.06 z" fill="#568257"/>
        <path d="M1808.659,1538.06 L1858.387,1288.061 L2000,1500 L1950.272,1750 z" fill="#426543"/>
        <path d="M1762.716,1057.091 L1904.33,845.151 L2000,1076.121 L1858.387,1288.06 z" fill="#6BA16D"/>
        <path d="M1904.33,595.151 L2000,364.181 L2095.671,595.151 L2000,826.121 z" fill="#9DE99F"/>
        <path d="M1904.33,845.151 L1904.33,595.151 L2000,826.121 L2000,1076.121 z" fill="#84C586"/>
      </g>
      <g>
        <path d="M2049.728,2250 L2000,2500 L1950.272,2250 L2000,2000 z" fill="#2B442C"/>
        <path d="M2287.012,2692.909 L2237.284,2942.909 L2141.613,2711.939 L2191.341,2461.94 z" fill="#568257"/>
        <path d="M2191.342,2461.94 L2141.613,2711.94 L2000,2500 L2049.728,2250 z" fill="#426543"/>
        <path d="M2237.285,2942.909 L2095.671,3154.849 L2000,2923.879 L2141.614,2711.94 z" fill="#6BA16D"/>
        <path d="M2095.671,3404.849 L2000,3635.819 L1904.329,3404.849 L2000,3173.879 z" fill="#9DE99F"/>
        <path d="M2095.671,3154.849 L2095.671,3404.849 L2000,3173.879 L2000,2923.879 z" fill="#84C586"/>
      </g>
      <g>
        <path d="M2141.614,1788.06 L2353.553,1646.447 L2211.94,1858.386 L2000,2000 z" fill="#2B442C"/>
        <path d="M2287.013,1307.091 L2498.952,1165.477 L2403.281,1396.447 L2191.342,1538.061 z" fill="#568257"/>
        <path d="M2191.342,1538.061 L2403.281,1396.447 L2353.553,1646.447 L2141.614,1788.061 z" fill="#426543"/>
        <path d="M2498.952,1165.477 L2748.952,1115.749 L2653.282,1346.719 L2403.282,1396.447 z" fill="#6BA16D"/>
        <path d="M2925.729,938.973 L3156.699,843.302 L3061.028,1074.271 L2830.058,1169.942 z" fill="#9DE99F"/>
        <path d="M2748.952,1115.749 L2925.729,938.973 L2830.058,1169.942 L2653.282,1346.719 z" fill="#84C586"/>
      </g>
      <g>
        <path d="M1858.386,2211.94 L1646.447,2353.553 L1788.06,2141.614 L2000,2000 z" fill="#2B442C"/>
        <path d="M1712.987,2692.909 L1501.047,2834.523 L1596.718,2603.553 L1808.658,2461.939 z" fill="#568257"/>
        <path d="M1808.658,2461.939 L1596.718,2603.553 L1646.447,2353.553 L1858.386,2211.94 z" fill="#426543"/>
        <path d="M1501.048,2834.523 L1251.048,2884.251 L1346.719,2653.281 L1596.719,2603.553 z" fill="#6BA16D"/>
        <path d="M1074.271,3061.028 L843.301,3156.699 L938.972,2925.729 L1169.942,2830.058 z" fill="#9DE99F"/>
        <path d="M1251.048,2884.251 L1074.271,3061.028 L1169.942,2830.058 L1346.719,2653.281 z" fill="#84C586"/>
      </g>
      <g>
        <path d="M2250,1950.272 L2500,2000 L2250,2049.728 L2000,2000 z" fill="#2B442C"/>
        <path d="M2692.909,1712.988 L2942.909,1762.716 L2711.939,1858.387 L2461.94,1808.658 z" fill="#568257"/>
        <path d="M2461.94,1808.658 L2711.939,1858.387 L2500,2000 L2250,1950.272 z" fill="#426543"/>
        <path d="M2942.909,1762.716 L3154.849,1904.33 L2923.879,2000 L2711.94,1858.387 z" fill="#6BA16D"/>
        <path d="M3404.849,1904.33 L3635.819,2000 L3404.849,2095.671 L3173.879,2000 z" fill="#9DE99F"/>
        <path d="M3154.849,1904.33 L3404.849,1904.33 L3173.879,2000 L2923.879,2000 z" fill="#84C586"/>
      </g>
      <g>
        <path d="M1750,2049.728 L1500,2000 L1750,1950.272 L2000,2000 z" fill="#2B442C"/>
        <path d="M1307.091,2287.012 L1057.091,2237.284 L1288.06,2141.613 L1538.06,2191.341 z" fill="#568257"/>
        <path d="M1538.06,2191.341 L1288.06,2141.613 L1500,2000 L1750,2049.728 z" fill="#426543"/>
        <path d="M1057.091,2237.284 L845.151,2095.671 L1076.121,2000 L1288.06,2141.614 z" fill="#6BA16D"/>
        <path d="M595.151,2095.671 L364.181,2000 L595.151,1904.329 L826.121,2000 z" fill="#9DE99F"/>
        <path d="M845.151,2095.671 L595.151,2095.671 L826.121,2000 L1076.12,2000 z" fill="#84C586"/>
      </g>
      <g>
        <path d="M2211.94,2141.614 L2353.553,2353.553 L2141.614,2211.94 L2000,2000 z" fill="#2B442C"/>
        <path d="M2692.909,2287.013 L2834.523,2498.952 L2603.553,2403.281 L2461.939,2191.342 z" fill="#568257"/>
        <path d="M2461.939,2191.342 L2603.553,2403.281 L2353.553,2353.553 L2211.939,2141.613 z" fill="#426543"/>
        <path d="M2834.523,2498.952 L2884.251,2748.952 L2653.281,2653.282 L2603.553,2403.282 z" fill="#6BA16D"/>
        <path d="M3061.028,2925.729 L3156.698,3156.699 L2925.729,3061.028 L2830.058,2830.058 z" fill="#9DE99F"/>
        <path d="M2884.251,2748.952 L3061.028,2925.729 L2830.058,2830.058 L2653.281,2653.282 z" fill="#84C586"/>
      </g>
      <g>
        <path d="M1788.06,1858.386 L1646.447,1646.447 L1858.386,1788.06 L2000,2000 z" fill="#2B442C"/>
        <path d="M1307.091,1712.987 L1165.477,1501.048 L1396.447,1596.718 L1538.061,1808.658 z" fill="#568257"/>
        <path d="M1538.06,1808.658 L1396.447,1596.718 L1646.447,1646.447 L1788.06,1858.386 z" fill="#426543"/>
        <path d="M1165.477,1501.048 L1115.749,1251.048 L1346.719,1346.719 L1396.447,1596.719 z" fill="#6BA16D"/>
        <path d="M938.972,1074.271 L843.301,843.301 L1074.271,938.972 L1169.942,1169.942 z" fill="#9DE99F"/>
        <path d="M1115.749,1251.048 L938.972,1074.271 L1169.942,1169.942 L1346.719,1346.719 z" fill="#84C586"/>
      </g>
    </g>
    <g id="RadialpathsCCW" display="none">
      <g>
        <path d="M2049.728,1750 L2000,1500 L1950.272,1750 L2000,2000 z" fill="#2B442C"/>
        <path d="M2287.012,1307.091 L2237.284,1057.091 L2141.613,1288.06 L2191.341,1538.06 z" fill="#568257"/>
        <path d="M2191.341,1538.06 L2141.613,1288.061 L2000,1500 L2049.728,1750 z" fill="#426543"/>
        <path d="M2237.284,1057.09 L2095.67,845.151 L2000,1076.121 L2141.613,1288.06 z" fill="#6BA16D"/>
        <path d="M2095.67,595.151 L2000,364.181 L1904.329,595.151 L2000,826.121 z" fill="#9DE99F"/>
        <path d="M2095.67,845.151 L2095.67,595.151 L2000,826.121 L2000,1076.121 z" fill="#84C586"/>
      </g>
      <g>
        <path d="M1950.272,2250 L2000,2500 L2049.728,2250 L2000,2000 z" fill="#2B442C"/>
        <path d="M1712.988,2692.909 L1762.716,2942.909 L1858.387,2711.939 L1808.659,2461.94 z" fill="#568257"/>
        <path d="M1808.659,2461.94 L1858.387,2711.94 L2000,2500 L1950.272,2250 z" fill="#426543"/>
        <path d="M1762.715,2942.909 L1904.329,3154.849 L2000,2923.879 L1858.386,2711.94 z" fill="#6BA16D"/>
        <path d="M1904.329,3404.849 L2000,3635.819 L2095.671,3404.849 L2000,3173.879 z" fill="#9DE99F"/>
        <path d="M1904.329,3154.849 L1904.329,3404.849 L2000,3173.879 L2000,2923.879 z" fill="#84C586"/>
      </g>
      <g>
        <path d="M1858.386,1788.06 L1646.447,1646.447 L1788.06,1858.386 L2000,2000 z" fill="#2B442C"/>
        <path d="M1712.987,1307.091 L1501.048,1165.477 L1596.719,1396.447 L1808.658,1538.061 z" fill="#568257"/>
        <path d="M1808.658,1538.061 L1596.719,1396.447 L1646.447,1646.447 L1858.387,1788.061 z" fill="#426543"/>
        <path d="M1501.048,1165.477 L1251.048,1115.749 L1346.718,1346.719 L1596.718,1396.447 z" fill="#6BA16D"/>
        <path d="M1074.271,938.973 L843.301,843.302 L938.972,1074.271 L1169.942,1169.942 z" fill="#9DE99F"/>
        <path d="M1251.048,1115.749 L1074.271,938.973 L1169.942,1169.942 L1346.718,1346.719 z" fill="#84C586"/>
      </g>
      <g>
        <path d="M2141.614,2211.94 L2353.553,2353.553 L2211.94,2141.614 L2000,2000 z" fill="#2B442C"/>
        <path d="M2287.013,2692.909 L2498.952,2834.523 L2403.282,2603.553 L2191.342,2461.939 z" fill="#568257"/>
        <path d="M2191.342,2461.939 L2403.282,2603.553 L2353.553,2353.553 L2141.614,2211.94 z" fill="#426543"/>
        <path d="M2498.952,2834.523 L2748.952,2884.251 L2653.281,2653.281 L2403.281,2603.553 z" fill="#6BA16D"/>
        <path d="M2925.729,3061.028 L3156.699,3156.698 L3061.028,2925.729 L2830.058,2830.058 z" fill="#9DE99F"/>
        <path d="M2748.952,2884.251 L2925.729,3061.028 L2830.058,2830.058 L2653.281,2653.281 z" fill="#84C586"/>
      </g>
      <g>
        <path d="M1750,1950.272 L1500,2000 L1750,2049.728 L2000,2000 z" fill="#2B442C"/>
        <path d="M1307.091,1712.988 L1057.091,1762.716 L1288.06,1858.387 L1538.06,1808.658 z" fill="#568257"/>
        <path d="M1538.06,1808.658 L1288.061,1858.387 L1500,2000 L1750,1950.272 z" fill="#426543"/>
        <path d="M1057.091,1762.716 L845.151,1904.33 L1076.121,2000 L1288.06,1858.387 z" fill="#6BA16D"/>
        <path d="M595.151,1904.33 L364.181,2000 L595.151,2095.671 L826.121,2000 z" fill="#9DE99F"/>
        <path d="M845.151,1904.33 L595.151,1904.33 L826.121,2000 L1076.12,2000 z" fill="#84C586"/>
      </g>
      <g>
        <path d="M2250,2049.728 L2500,2000 L2250,1950.272 L2000,2000 z" fill="#2B442C"/>
        <path d="M2692.909,2287.012 L2942.909,2237.284 L2711.939,2141.613 L2461.94,2191.341 z" fill="#568257"/>
        <path d="M2461.94,2191.341 L2711.94,2141.613 L2500,2000 L2250,2049.728 z" fill="#426543"/>
        <path d="M2942.909,2237.284 L3154.849,2095.671 L2923.879,2000 L2711.94,2141.614 z" fill="#6BA16D"/>
        <path d="M3404.849,2095.671 L3635.819,2000 L3404.849,1904.329 L3173.879,2000 z" fill="#9DE99F"/>
        <path d="M3154.849,2095.671 L3404.849,2095.671 L3173.879,2000 L2923.879,2000 z" fill="#84C586"/>
      </g>
      <g>
        <path d="M1788.06,2141.614 L1646.447,2353.553 L1858.386,2211.94 L2000,2000 z" fill="#2B442C"/>
        <path d="M1307.091,2287.012 L1165.477,2498.952 L1396.447,2403.281 L1538.061,2191.342 z" fill="#568257"/>
        <path d="M1538.06,2191.342 L1396.447,2403.281 L1646.447,2353.553 L1788.061,2141.613 z" fill="#426543"/>
        <path d="M1165.477,2498.952 L1115.749,2748.952 L1346.719,2653.282 L1396.447,2403.282 z" fill="#6BA16D"/>
        <path d="M938.973,2925.729 L843.302,3156.699 L1074.271,3061.028 L1169.942,2830.058 z" fill="#9DE99F"/>
        <path d="M1115.749,2748.952 L938.973,2925.729 L1169.942,2830.058 L1346.719,2653.282 z" fill="#84C586"/>
      </g>
      <g>
        <path d="M2211.94,1858.386 L2353.553,1646.447 L2141.614,1788.06 L2000,2000 z" fill="#2B442C"/>
        <path d="M2692.909,1712.987 L2834.523,1501.048 L2603.553,1596.718 L2461.939,1808.658 z" fill="#568257"/>
        <path d="M2461.939,1808.658 L2603.553,1596.718 L2353.553,1646.447 L2211.94,1858.386 z" fill="#426543"/>
        <path d="M2834.523,1501.048 L2884.251,1251.048 L2653.281,1346.719 L2603.553,1596.719 z" fill="#6BA16D"/>
        <path d="M3061.028,1074.271 L3156.699,843.301 L2925.729,938.972 L2830.058,1169.942 z" fill="#9DE99F"/>
        <path d="M2884.251,1251.048 L3061.028,1074.271 L2830.058,1169.942 L2653.281,1346.719 z" fill="#84C586"/>
      </g>
    </g>
  </g>
  <g id="BlueRadialPathsCW">
    <path d="M2000.5,1782.564 L1927.108,1581.105 L1787.637,1324.771 L1865.121,1081.333 L1954.227,825.636 L2020.089,577.687" fill-opacity="0" stroke="#00BECD" stroke-width="8" id="BlueRadialPath1"/>
    <path d="M2172.781,1853.33 L2263.337,1658.982 L2345.972,1379.105 L2572.898,1261.758 L2816.711,1143.96 L3038.609,1015.205" fill-opacity="0" stroke="#00BECD" stroke-width="8" id="BlueRadialPath2"/>
    <path d="M2242.855,2024.484 L2444.314,1951.092 L2700.648,1811.62 L2944.086,1889.104 L3199.783,1978.211 L3447.732,2044.073" fill-opacity="0" stroke="#00BECD" stroke-width="8" id="BlueRadialPath3"/>
    <path d="M2172.089,2195.765 L2366.438,2286.321 L2646.314,2368.956 L2763.661,2595.882 L2881.459,2839.695 L3010.214,3061.593" fill-opacity="0" stroke="#00BECD" stroke-width="8" id="BlueRadialPath4"/>
    <path d="M2000.935,2266.839 L2074.328,2468.298 L2213.799,2724.631 L2136.315,2968.07 L2047.208,3223.767 L1981.347,3471.716" fill-opacity="0" stroke="#00BECD" stroke-width="8" id="BlueRadialPath5"/>
    <path d="M1829.654,2196.073 L1739.098,2390.421 L1656.464,2670.298 L1429.537,2787.645 L1185.724,2905.443 L963.827,3034.198" fill-opacity="0" stroke="#00BECD" stroke-width="8" id="BlueRadialPath6"/>
    <path d="M1758.58,2024.919 L1557.122,2098.311 L1300.788,2237.783 L1057.35,2160.299 L801.652,2071.192 L553.703,2005.33" fill-opacity="0" stroke="#00BECD" stroke-width="8" id="BlueRadialPath7"/>
    <path d="M1829.347,1853.638 L1634.998,1763.082 L1355.121,1680.447 L1237.774,1453.521 L1119.977,1209.708 L991.221,987.81" fill-opacity="0" stroke="#00BECD" stroke-width="8" id="BlueRadialPath8"/>
  </g>
  <g id="BlueRadialPathsCCW">
    <path d="M2000.935,1782.564 L2074.328,1581.105 L2213.799,1324.771 L2136.315,1081.333 L2047.208,825.636 L1981.347,577.687" fill-opacity="0" stroke="#00BECD" stroke-width="8" id="BlueRadialPath1"/>
    <path d="M1828.654,1853.33 L1738.098,1658.982 L1655.464,1379.105 L1428.537,1261.758 L1184.724,1143.96 L962.827,1015.205" fill-opacity="0" stroke="#00BECD" stroke-width="8" id="BlueRadialPath2"/>
    <path d="M1758.58,2024.484 L1557.122,1951.092 L1300.788,1811.62 L1057.35,1889.104 L801.652,1978.211 L553.703,2044.073" fill-opacity="0" stroke="#00BECD" stroke-width="8" id="BlueRadialPath3"/>
    <path d="M1829.347,2195.765 L1634.998,2286.321 L1355.121,2368.956 L1237.774,2595.882 L1119.977,2839.695 L991.221,3061.593" fill-opacity="0" stroke="#00BECD" stroke-width="8" id="BlueRadialPath4"/>
    <path d="M2000.5,2266.839 L1927.108,2468.298 L1787.637,2724.631 L1865.121,2968.07 L1954.227,3223.767 L2020.089,3471.716" fill-opacity="0" stroke="#00BECD" stroke-width="8" id="BlueRadialPath5"/>
    <path d="M2171.781,2196.073 L2262.338,2390.421 L2344.972,2670.298 L2571.898,2787.645 L2815.711,2905.443 L3037.609,3034.198" fill-opacity="0" stroke="#00BECD" stroke-width="8" id="BlueRadialPath6"/>
    <path d="M2242.855,2024.919 L2444.314,2098.311 L2700.648,2237.783 L2944.086,2160.299 L3199.783,2071.192 L3447.732,2005.33" fill-opacity="0" stroke="#00BECD" stroke-width="8" id="BlueRadialPath7"/>
    <path d="M2172.089,1853.638 L2366.438,1763.082 L2646.314,1680.447 L2763.661,1453.521 L2881.459,1209.708 L3010.214,987.81" fill-opacity="0" stroke="#00BECD" stroke-width="8" id="BlueRadialPath8"/>
  </g>
</svg>
